<svg xmlns="http://www.w3.org/2000/svg" viewBox="0 0 681.75 406.33"><defs><style>.cls-1{fill:#bed5fc;}.cls-2{fill:#2e62c8;}.cls-3{fill:#738999;}.cls-4{fill:#1a53ad;}.cls-5{fill:#96aabc;}.cls-6{fill:#343741;}.cls-7{fill:#89adf2;}.cls-8{fill:#5c87cc;}.cls-12,.cls-16,.cls-17,.cls-18,.cls-19,.cls-20,.cls-21,.cls-22,.cls-23,.cls-24,.cls-9{fill:none;}.cls-17,.cls-18,.cls-19,.cls-21,.cls-9{stroke:#1b2126;}.cls-12,.cls-20,.cls-24,.cls-9{stroke-linecap:round;}.cls-20,.cls-24,.cls-9{stroke-linejoin:round;}.cls-10{fill:#fff;}.cls-11{fill:#1b2126;}.cls-12{stroke:#343741;}.cls-12,.cls-16,.cls-17,.cls-18,.cls-19,.cls-21,.cls-22,.cls-23{stroke-miterlimit:10;}.cls-12,.cls-16,.cls-19,.cls-23{stroke-width:2px;}.cls-13{fill:#323a43;}.cls-14{fill:#bac6ce;}.cls-15{fill:#e8f1f9;}.cls-16{stroke:#323a43;}.cls-18{stroke-dasharray:2.8 2.8;}.cls-20{stroke:#2e62c8;stroke-width:3px;}.cls-21{stroke-dasharray:2.91 2.91;}.cls-22{stroke:#fff;}.cls-23,.cls-24{stroke:#5c87cc;}</style></defs><g id="BACKGROUND"><path class="cls-1" d="M674.89,124.37C663.46,91.07,628.65,68,592.1,59.68s-75.23-3.28-111.31,6.61A409.35,409.35,0,0,0,400,97.9c-20.2,10.53-39.62,22.8-61.57,29.65a136.19,136.19,0,0,1-76.09,1.2c-24.86-6.89-46.76-20.68-70.51-30.37C165.53,87.63,137,82,108.4,79.37,81,76.85,50.67,77.89,29.94,94.69,17.91,104.44,10.7,118.4,6,132.58c-8.15,24.61-9.25,52.62,4.53,75C27.47,235,62.76,247.94,96.45,252.4s68.31,2.44,101.49,9.48c36.75,7.79,69.7,26.21,101.91,44.39,12.51,7.06,25,14.14,38.14,20.2C397.7,354.08,469,359.19,532.6,340.4c47.73-14.12,91.44-41.94,118.92-80.85S690.11,168.7,674.89,124.37Z"/><path class="cls-1" d="M130.69,293.52c-15.23-1.75-27.91-1-43.15.69s-30.48,7.2-39.38,17.32c-10.5,11.93-10.29,28.65-2.21,41.75s23,22.82,39.44,29.06c26.16,10,60.71,10.64,80.94-6a45.48,45.48,0,0,0,15.92-28,43.68,43.68,0,0,0-12.39-38.46c-10.73-10.52-20.16-14.49-39.17-16.3Z"/><path class="cls-1" d="M601.94,11.84A8.28,8.28,0,0,0,601,22c2,3.15,5.41,5.07,8.76,6.7A124.29,124.29,0,0,0,625.2,35c6.94,2.29,16,3.3,20.21-2.71,2.63-3.8,2-9.21-.63-13s-6.74-6.33-11-8.16C624.65,7.13,610.62,3.2,601.94,11.84Z"/></g><g id="OBJECTS"><rect class="cls-2" x="110.2" y="167.94" width="80.63" height="105.83" rx="3.06" transform="translate(301.03 441.71) rotate(180)"/><polygon class="cls-3" points="234.25 406.33 224.5 406.33 211.13 286.33 229.88 286.33 234.25 406.33"/><rect class="cls-4" x="103.45" y="261.21" width="124.88" height="25.13" rx="1.85" transform="translate(331.78 547.54) rotate(180)"/><polygon class="cls-5" points="103.45 406.33 113.2 406.33 126.58 286.33 107.83 286.33 103.45 406.33"/><polygon class="cls-3" points="126.58 406.33 136.33 406.33 149.7 286.33 130.95 286.33 126.58 406.33"/><circle class="cls-6" cx="215.65" cy="62.31" r="11.38"/><path class="cls-7" d="M195.61,22.26a30.93,30.93,0,0,1,22.25,11.37,26.56,26.56,0,0,1,5.59,12.51C225.7,60.58,214.07,76,214.07,76S212,87.39,204.89,92.08,188,94,188,94l2.06,11.43s1.89.24,4.55.77a7.83,7.83,0,0,1,1.94,14.67,33.36,33.36,0,0,1-14.36,3.5c-10.37.22-18.67-4.82-23.74-9a5.24,5.24,0,0,1,.93-8.72l4.25-2.15,3.75-23.82s-9.94-9.75-7.13-22.12C162.7,47.78,171.5,20.65,195.61,22.26Z"/><path class="cls-8" d="M188,94a28.38,28.38,0,0,1-8.19-5.19s.14,7.16,9.38,11.8Z"/><path class="cls-6" d="M167.39,80.64l.84-9.89s-5.53-1.17-5.16-6.7,5.35-11.25,9.29-8.91S174,67.62,174,67.62l2.81.76L187.84,54.6s1.3,5.61,6.92,4.95,5.72-4.95,5.72-4.95,1,5,5.81,4.95,5.16-2.16,5.16-2.16-.38,5.29,6.66,5.55,6.75-5.64,6.75-5.64,7.46,0,6.71-9.09S226.32,40,226.32,40s7.07-2.25,4.07-12.38-12.19-7.31-12.19-7.31.06-9.75-8.69-12-12.69,5.81-12.69,5.81S192.25,6,183.38,7.87,175.45,19,175.45,19s-9.38-6.94-16.31-.75-1.69,14.43-1.69,14.43-10.69-.75-11.81,10.5,8.06,13.19,8.06,13.19a12.61,12.61,0,0,0-2.44,14.42c3.94,8.58,9.56,8.24,9.56,8.24S163.07,83.64,167.39,80.64Z"/><path class="cls-9" d="M201,76.27l-.69,2.62s1.25,2.63-.37,3.44-3.13-.75-3.13-.75"/><path class="cls-8" d="M189.17,79l7.12,8.29s-5,3.82-9,.63S189.17,79,189.17,79Z"/><path class="cls-10" d="M189.17,79a15.31,15.31,0,0,0-1.33,1.55,12.92,12.92,0,0,0,6.64,7.79,10,10,0,0,0,1.81-1Z"/><circle class="cls-9" cx="192.88" cy="65.83" r="9.5"/><circle class="cls-9" cx="213.05" cy="75.33" r="9.5"/><path class="cls-9" d="M201.48,69.85a2.75,2.75,0,0,1,2.78,1.87"/><path class="cls-11" d="M194.66,69c-.45,1.32-1.61,2.11-2.6,1.77s-1.42-1.68-1-3,1.62-2.11,2.61-1.77S195.12,67.68,194.66,69Z"/><path class="cls-12" d="M191.48,62.46s3.28-.75,5.34,1.12"/><path class="cls-11" d="M211.3,75.05c-.46,1.31-1.62,2.1-2.61,1.77s-1.42-1.69-1-3,1.62-2.11,2.6-1.77S211.75,73.73,211.3,75.05Z"/><path class="cls-12" d="M210.79,69.39a8.17,8.17,0,0,1,3.57,2.72"/><path class="cls-9" d="M170.76,61.89s.47-3.09-1-3.09-4.78,5.72-1.41,7.88"/><path class="cls-11" d="M277.57,394.28l25.63,6.05-1.75,6H248.2l3-11.53C261.83,400.71,273.09,396.46,277.57,394.28Z"/><path class="cls-8" d="M269.25,391.84l-2.31-6.76H251.32l.46,7.44h0l-.59,2.28c10.64,5.91,21.9,1.66,26.38-.52Z"/><path class="cls-13" d="M215.57,260.58l17.73,124.5h36.77l3.75-136s-6.77-17.5-30.38-17.5C206.82,231.58,215.57,260.58,215.57,260.58Z"/><polygon class="cls-11" points="250.65 385.09 251.32 248.08 254 385.07 250.65 385.09"/><path class="cls-13" d="M259.69,394.28l25.63,6.05-1.75,6H230.32l3-11.53C244,400.71,255.21,396.46,259.69,394.28Z"/><path class="cls-7" d="M251.77,392l-2.32-6.88H234.07v6.75l-.76,3c10.64,5.91,21.9,1.66,26.38-.52Z"/><path class="cls-2" d="M161.45,109.46s8.77,9.74,20.75,8.75,16-8.75,16-8.75l-4,78.12h-21Z"/><path class="cls-10" d="M163.64,104.46s-19.32,5.39-27.07,19.88-5.31,38,9,60.24c0,0-23.78,72,0,79s70.11,0,70.11,0,8.17-28,35.67-15.5c0,0,8.5-7.5,22.5,1,0,0-2-24-13.5-28.23s-54-11.46-54-11.46l-1.75-8.81,30.5-7-2.25-15.25L203,179.83l-.77-6.37s10.69-1.69,10.31-9.19-2-18.75-2-18.75l28.63,35.31,57.87,12.75,6-10.75L250.5,161.39,223.08,122.1a37.3,37.3,0,0,0-19.21-13.22l-9.33-2.74-2.48,73.69H177Z"/><path class="cls-14" d="M145.54,184.58c1.49,2.59,3,5.17,4.61,7.66s3.26,4.95,5.06,7.27a27.33,27.33,0,0,0,6.09,6.06,7.17,7.17,0,0,0,1.77.85c.15,0,.29.09.44.12l.44.06c.31,0,.69,0,1,0,.7,0,1.44-.08,2.16-.13s1.46-.15,2.19-.24c2.93-.33,5.86-.8,8.79-1.28s5.87-1,8.8-1.46q8.81-1.53,17.65-2.91Q196,203.1,187.22,205c-5.83,1.28-11.68,2.45-17.66,3.19-.75.09-1.49.18-2.26.22a21.72,21.72,0,0,1-2.3.12c-.4,0-.77,0-1.2,0l-.67-.09c-.22-.05-.42-.12-.63-.18a7.64,7.64,0,0,1-1.18-.47c-.36-.21-.73-.4-1-.63a19.42,19.42,0,0,1-3.48-3.14,35.87,35.87,0,0,1-2.83-3.58A81.23,81.23,0,0,1,145.54,184.58Z"/><polyline class="cls-9" points="160.27 105.61 158.39 132.58 165.65 137.38 164.76 152.08 173.67 161.25"/><polyline class="cls-9" points="198.2 107.22 203.03 130.33 196.68 138.83 199.85 151.14 192.69 161.25"/><path class="cls-7" d="M233.3,181.58l9.84-8.87,3.75,2.43L244.42,181a105.74,105.74,0,0,0,16.72-11.3l6.56,6.75s-8.81,21.75-31.88,16.31Z"/><line class="cls-9" x1="163.64" y1="104.46" x2="176.95" y2="179.83"/><line class="cls-9" x1="194.54" y1="106.14" x2="192.06" y2="179.83"/><path class="cls-14" d="M203,179.83c-2.72.19-5.45.29-8.18.43s-5.45.2-8.17.28q-8.18.22-16.36.26h-.69l-.23-.67Q167.63,175,166,169.89c-1.15-3.42-2.22-6.86-3.33-10.29s-2.13-6.89-3.15-10.35-2-6.92-2.94-10.42c1.38,3.34,2.66,6.71,4,10.08s2.5,6.76,3.73,10.15,2.42,6.79,3.57,10.21,2.33,6.82,3.45,10.25l-.93-.66c5.46,0,10.91.12,16.36.26,2.72.08,5.45.16,8.17.29S200.31,179.64,203,179.83Z"/><path class="cls-9" d="M165.09,112.66a24.1,24.1,0,0,0,15.74,5.61c9.49-.19,13.45-4.49,13.45-4.49"/><path class="cls-7" d="M302.48,183.9s14-2,25.59,4.93L326,193.58l-18.56-3.06.75,3.06-10.34-1.41Z"/><rect class="cls-10" x="476.88" y="167.94" width="80.62" height="105.83" rx="3.06"/><polygon class="cls-3" points="433.45 406.33 443.2 406.33 456.58 286.33 437.83 286.33 433.45 406.33"/><rect class="cls-15" x="439.38" y="261.21" width="124.87" height="25.13" rx="1.85"/><polygon class="cls-5" points="564.25 406.33 554.5 406.33 541.13 286.33 559.88 286.33 564.25 406.33"/><polygon class="cls-3" points="541.13 406.33 531.38 406.33 518 286.33 536.75 286.33 541.13 406.33"/><path class="cls-13" d="M511.76,204.83s10.5,23.57,9.75,49.8-23.25,28.1-75.38,11.71l-6.37,125.49H403s-17.56-138.13-8.56-156.4,67.81-12.65,67.81-12.65l2.25-17.95Z"/><path class="cls-11" d="M420.46,392,413,293.91l-3.75-49a22.77,22.77,0,0,1,2.27-12.15,15.85,15.85,0,0,1,9-8.2,67.46,67.46,0,0,1,12.2-1.76c4.1-.27,8.2-.36,12.29-.38-4.09.11-8.19.28-12.27.64a67.61,67.61,0,0,0-12.06,2,15.21,15.21,0,0,0-8.55,8,22,22,0,0,0-2,11.75l4.56,49,9.1,97.93Z"/><path class="cls-11" d="M462.33,222.23q7.34,1.11,14.63,2.39c4.87.86,9.73,1.76,14.55,2.85-4.86-.9-9.75-1.62-14.64-2.3s-9.79-1.28-14.69-1.83Z"/><path class="cls-8" d="M421,394.8l-.76-3H403l-8.37,2.45C399.12,396.46,410.38,400.71,421,394.8Z"/><path class="cls-11" d="M394.64,394.28,369,400.33l1.75,6H424l-3-11.53C410.38,400.71,399.12,396.46,394.64,394.28Z"/><path class="cls-7" d="M438.9,394.8l-.76-3H420.89l-8.37,2.45C417,396.46,428.26,400.71,438.9,394.8Z"/><path class="cls-13" d="M412.52,394.28l-25.63,6.05,1.75,6h53.25l-3-11.53C428.26,400.71,417,396.46,412.52,394.28Z"/><path class="cls-6" d="M519.88,61.54c-8.35-15.48-10-21.83-10-21.83L453,41.66s4.63,39.94-3.81,56.63c0,0,4,1.18,10.49,2.42a34.17,34.17,0,0,0,2.07-10.42s.94,6.69.31,10.85c1.55.27,3.21.54,5,.8a23.2,23.2,0,0,0,1.55-4.84,30.21,30.21,0,0,1,.85,5.17c12.35,1.59,28.7,2.27,44.17-1.56,1.2-2.61,3.09-7.58,2.48-11.73a51.31,51.31,0,0,1,.35,11c1.73-.5,3.45-1,5.15-1.67C521.57,98.29,528.23,77,519.88,61.54Z"/><path class="cls-7" d="M457.22,36a32.25,32.25,0,0,0,.35,25.72s0,26.25,19.31,26.81l2.63,16.31a135.94,135.94,0,0,0-18.28,5.28,9.15,9.15,0,0,0-2.65,15.53c6.63,5.62,17.44,11.69,33.18,11.69s25.77-7.16,31.59-13.73A10.31,10.31,0,0,0,519,107a122.1,122.1,0,0,0-17.45-4.14v-24s4.25-7.75,4-16c0,0,6.25,0,4-9S504.26,22.08,482,22.08c-18,0-23.12,9.78-24.2,12.5C457.62,35.05,457.43,35.52,457.22,36Z"/><path class="cls-8" d="M476.88,88.52s5.38,1.31,15-2.31c0,0-4.37,5.89-14.18,7.38Z"/><path class="cls-6" d="M508.69,50c.7,1.3,2.35-.26,2.75-1.68a3.5,3.5,0,0,0,0-1.33,36,36,0,0,0-16.72-26.42A20,20,0,0,0,489,18a24.86,24.86,0,0,0-5.09-.47c-5.94-.08-12.05.31-17.43,2.82a23.94,23.94,0,0,0-13,15.83h0c-.56,3-1.21,6.44.58,8.92a10.66,10.66,0,0,0,3.18,2.67c3.06,1.91,6.36,3.7,10,3.93a14.85,14.85,0,0,1-1.13-6.25c5.72,4.35,13.07,5.77,20.14,7.07a24.73,24.73,0,0,0-2.64-5.36,33.39,33.39,0,0,0,9.32,4.1,13.83,13.83,0,0,0,9.92-1.14c1.49-.86,3.16-2.13,4.72-1.43Z"/><path class="cls-8" d="M476.88,79.71l7.5-6s5.13,6.66,2.38,8.41S476.88,79.71,476.88,79.71Z"/><path class="cls-10" d="M484.38,73.67l-7.5,6s.94.54,2.27,1.15a19.11,19.11,0,0,0,7-4.5A26.3,26.3,0,0,0,484.38,73.67Z"/><path class="cls-11" d="M465.29,65.26c.24,1.37-.4,2.62-1.43,2.8s-2.06-.79-2.29-2.16.4-2.62,1.43-2.8S465.05,63.89,465.29,65.26Z"/><path class="cls-12" d="M458.88,59.53s1-1.92,4.31-2.2"/><path class="cls-11" d="M483.05,61.35c.24,1.37-.4,2.62-1.43,2.8s-2.05-.79-2.29-2.16.4-2.62,1.43-2.8S482.81,60,483.05,61.35Z"/><path class="cls-12" d="M478.56,54.66s3.47-.33,5.25,1.22"/><path class="cls-9" d="M476.88,74.76c-8,3.27-4.41-7.24-4.41-7.24l-.8-3.69"/><path class="cls-9" d="M504.89,60s3.72-6.28,1.33-7.88-3,4.29-3,4.29"/><path class="cls-7" d="M541.2,150,552,253.24s9.18,3.52,12.42,5.92,4.23,18.92,4.23,18.92l-5.27-1.41-4.69-11.29-10-4.05s.76,5.46,2,7.86l-4.33,1s-4.91-8.72-5.34-11.26.67-7.1.67-7.1-9.42-27.92-10.16-49.3l-12.07-42.34Z"/><path class="cls-7" d="M455.88,158.67l-18.37,25.91-66.75,9h-11l1.5-2.5-18.75,2.5-1.5-4.5,6.75-3.25c11.25-4.75,25,.75,25,.75,46.5-17.25,54.53-18.75,54.53-18.75l9.22-20S448.76,151,455.88,158.67Z"/><path class="cls-13" d="M427.29,167.83s-2.65.5-13.65,4.17l6,15,17.85-2.41,7.54-10.64-15.5-10.54Z"/><polygon class="cls-13" points="299 181.58 271.5 186.99 271.5 193.58 304.5 193.58 301.5 181.58 299 181.58"/><path class="cls-16" d="M300.51,186.52h26.62A13.88,13.88,0,0,0,341,172.64v-9.12a15.68,15.68,0,0,1,15.68-15.69H365a8.75,8.75,0,0,1,8.75,8.75h0a9.37,9.37,0,0,0,9.37,9.38h3a12.34,12.34,0,0,0,12.34-12.35v-8a12.78,12.78,0,0,1,12.78-12.78h0A12.79,12.79,0,0,1,424,145.59v23.12"/><path class="cls-2" d="M459.57,110.77a30.6,30.6,0,0,0,30.69,16.37A40.83,40.83,0,0,0,521.69,108s12.62,8,23.25,43.94h0a51.27,51.27,0,0,1-25.86,10.57l-1.07.12-1.5-10.25-4.75,52.5s-19.25,10.25-47.25,0l-2-33.8s-4.37-9.45-2.94-22.95l-3.69,14.5s-11.25-10.5-22.12-12.56C433.76,150,450.26,113.58,459.57,110.77Z"/><path class="cls-9" d="M459.57,110.77s6.56,18.06,30.69,16.37S521.69,108,521.69,108"/><path class="cls-9" d="M456.44,110.64s5.38,23.25,34.19,22.13S525.07,108,525.07,108"/><path class="cls-9" d="M479.51,104.83s4.5,6.38,11.25,5.63,10.75-7.63,10.75-7.63"/><path class="cls-9" d="M518,162.58s13.62.75,26.93-10.69"/><path class="cls-9" d="M433.76,150s11.25.94,22.12,12.56"/><path class="cls-9" d="M464.27,200.82s26.21,9.73,47.85,0"/><polygon class="cls-5" points="446.33 406.33 454.83 406.33 429 205.14 410.5 205.14 446.33 406.33"/><polygon class="cls-5" points="251.02 406.33 242.52 406.33 268.35 205.14 286.85 205.14 251.02 406.33"/><rect class="cls-15" x="242.13" y="193.58" width="213.75" height="11.56"/><path class="cls-7" d="M367.71,67a9.94,9.94,0,1,0-19.87,0v11.2h19.87Z"/><path class="cls-8" d="M347.84,78.17v11a9.94,9.94,0,1,0,19.87,0v-11Z"/><line class="cls-17" x1="405.38" y1="332.08" x2="403.88" y2="332.08"/><line class="cls-18" x1="401.08" y1="332.08" x2="363.24" y2="332.08"/><line class="cls-17" x1="361.84" y1="332.08" x2="360.34" y2="332.08"/><rect class="cls-19" x="341.01" y="322.33" width="19.5" height="19.5" transform="translate(701.51 664.16) rotate(180)"/><line class="cls-20" x1="346.38" y1="327.77" x2="354.72" y2="336.11"/><line class="cls-20" x1="354.72" y1="327.77" x2="346.38" y2="336.11"/><line class="cls-17" x1="544.1" y1="232.14" x2="545.6" y2="232.14"/><line class="cls-18" x1="548.4" y1="232.14" x2="586.24" y2="232.14"/><line class="cls-17" x1="587.64" y1="232.14" x2="589.14" y2="232.14"/><rect class="cls-19" x="588.97" y="222.39" width="19.5" height="19.5"/><line class="cls-20" x1="594.55" y1="227.97" x2="602.9" y2="236.32"/><line class="cls-20" x1="602.9" y1="227.97" x2="594.55" y2="236.32"/><line class="cls-17" x1="505.1" y1="179.83" x2="506.6" y2="179.83"/><line class="cls-21" x1="509.51" y1="179.83" x2="566.22" y2="179.83"/><line class="cls-17" x1="567.67" y1="179.83" x2="569.17" y2="179.83"/><rect class="cls-19" x="569.01" y="170.08" width="19.5" height="19.5"/><polyline class="cls-20" points="574.35 180.32 577.88 183.85 584.1 175.82"/><rect class="cls-8" x="55.26" y="44.62" width="69.5" height="102.06"/><circle class="cls-10" cx="69.96" cy="59.07" r="6.52"/><line class="cls-22" x1="63.44" y1="79.42" x2="91.76" y2="79.42"/><line class="cls-22" x1="63.44" y1="84.83" x2="91.76" y2="84.83"/><line class="cls-22" x1="63.44" y1="90.23" x2="116.45" y2="90.23"/><line class="cls-22" x1="63.44" y1="95.64" x2="116.45" y2="95.64"/><line class="cls-22" x1="63.44" y1="101.05" x2="116.45" y2="101.05"/><line class="cls-22" x1="63.44" y1="120.96" x2="111.26" y2="120.96"/><line class="cls-22" x1="63.44" y1="127.33" x2="111.26" y2="127.33"/><rect class="cls-8" x="539.59" y="41.86" width="69.5" height="56.43"/><circle class="cls-10" cx="554.3" cy="56.3" r="6.52"/><line class="cls-22" x1="547.78" y1="73.66" x2="600.79" y2="73.66"/><line class="cls-22" x1="547.78" y1="79.06" x2="600.79" y2="79.06"/><line class="cls-22" x1="547.78" y1="84.47" x2="569.84" y2="84.47"/><line class="cls-22" x1="547.78" y1="89.88" x2="600.79" y2="89.88"/><circle class="cls-7" cx="317.28" cy="80.75" r="18.31" transform="translate(9.28 191.76) rotate(-34.1)"/><line class="cls-23" x1="317.28" y1="62.45" x2="317.28" y2="99.06"/><path class="cls-8" d="M286.67,68c-8.82-10.18-17.65,5.6-17.65,5.6S260.2,57.81,251.38,68C242.21,78.56,269,95.81,269,95.81S295.84,78.56,286.67,68Z"/><polyline class="cls-24" points="246.05 121.21 255.96 121.21 260 112.77 264.75 130.96 270.25 103.96 277 137.96 281.5 120.96 292 120.96"/><line class="cls-24" x1="231.63" y1="88.62" x2="231.63" y2="97.18"/><line class="cls-24" x1="235.91" y1="92.9" x2="227.35" y2="92.9"/><line class="cls-24" x1="293.58" y1="41.46" x2="293.58" y2="50.03"/><line class="cls-24" x1="297.86" y1="45.74" x2="289.3" y2="45.74"/><line class="cls-24" x1="369.19" y1="122.97" x2="369.19" y2="131.54"/><line class="cls-24" x1="373.48" y1="127.26" x2="364.91" y2="127.26"/><line class="cls-24" x1="589.14" y1="112.04" x2="589.14" y2="120.6"/><line class="cls-24" x1="593.42" y1="116.32" x2="584.86" y2="116.32"/><line class="cls-24" x1="94.76" y1="163.8" x2="94.76" y2="172.36"/><line class="cls-24" x1="99.04" y1="168.08" x2="90.47" y2="168.08"/><line class="cls-24" x1="319.81" y1="159.66" x2="319.81" y2="165.5"/><line class="cls-24" x1="322.73" y1="162.58" x2="316.9" y2="162.58"/><line class="cls-24" x1="440.13" y1="32.13" x2="440.13" y2="37.97"/><line class="cls-24" x1="443.05" y1="35.05" x2="437.21" y2="35.05"/><line class="cls-24" x1="341.01" y1="0.5" x2="341.01" y2="6.34"/><line class="cls-24" x1="343.92" y1="3.42" x2="338.09" y2="3.42"/><line class="cls-24" x1="141.47" y1="89.98" x2="141.47" y2="95.81"/><line class="cls-24" x1="144.39" y1="92.9" x2="138.55" y2="92.9"/><line class="cls-24" x1="558.18" y1="139.23" x2="558.18" y2="145.06"/><line class="cls-24" x1="561.1" y1="142.14" x2="555.26" y2="142.14"/><path class="cls-7" d="M386.84,61.66l21.25-6.8v55.3s-21.25-6.33-21.25-23.67Z"/><path class="cls-8" d="M429.34,61.66l-21.25-6.8v55.3s21.25-6.33,21.25-23.67Z"/><polygon class="cls-10" points="419 79.5 411.09 79.5 411.09 71.59 405.09 71.59 405.09 79.5 397.18 79.5 397.18 85.5 405.09 85.5 405.09 93.41 411.09 93.41 411.09 85.5 419 85.5 419 79.5"/><circle class="cls-8" cx="332.95" cy="35.05" r="2.64"/><path class="cls-7" d="M135.8,12.06a4.48,4.48,0,1,1-4.47-4.48A4.48,4.48,0,0,1,135.8,12.06Z"/><circle class="cls-8" cx="99.04" cy="24.86" r="2.64"/><path class="cls-8" d="M389.87,13.57a4.66,4.66,0,1,1-4.65-4.66A4.66,4.66,0,0,1,389.87,13.57Z"/><path class="cls-8" d="M605.45,150a4.66,4.66,0,1,1-4.66-4.66A4.66,4.66,0,0,1,605.45,150Z"/><circle class="cls-7" cx="63.44" cy="165.5" r="2.64"/><circle class="cls-7" cx="626.04" cy="117.6" r="2.64"/><path class="cls-7" d="M86.71,202.91A4.87,4.87,0,1,1,81.84,198,4.87,4.87,0,0,1,86.71,202.91Z"/><path class="cls-8" d="M289.49,156.3a2.64,2.64,0,1,1-2.64-2.64A2.64,2.64,0,0,1,289.49,156.3Z"/><circle class="cls-7" cx="304.11" cy="266.69" r="2.64"/><circle class="cls-7" cx="409.46" cy="35.33" r="2.64"/><circle class="cls-7" cx="551.99" cy="22.08" r="4.21"/><circle class="cls-8" cx="519.52" cy="8.91" r="2.64"/><circle class="cls-8" cx="335.59" cy="236.32" r="2.64"/><path class="cls-7" d="M274,18.2a4.64,4.64,0,1,1-4.63-4.63A4.63,4.63,0,0,1,274,18.2Z"/><path class="cls-7" d="M383.45,222.78a4.64,4.64,0,1,1-4.63-4.63A4.63,4.63,0,0,1,383.45,222.78Z"/><path class="cls-7" d="M356.08,282.71a4.64,4.64,0,1,1-4.64-4.63A4.64,4.64,0,0,1,356.08,282.71Z"/><path class="cls-7" d="M394.48,121a4.63,4.63,0,1,1-4.63-4.64A4.63,4.63,0,0,1,394.48,121Z"/></g></svg>