<?xml version="1.0" encoding="utf-8"?>
<!-- Generator: Adobe Illustrator 27.5.0, SVG Export Plug-In . SVG Version: 6.00 Build 0)  -->
<svg version="1.1" xmlns="http://www.w3.org/2000/svg" xmlns:xlink="http://www.w3.org/1999/xlink" x="0px" y="0px"
	 viewBox="0 0 500 500" style="enable-background:new 0 0 500 500;" xml:space="preserve">
<g id="Background_Complete">
	<g>
		<rect y="382.398" style="fill:#EBEBEB;" width="500" height="0.25"/>
		<rect x="416.779" y="398.494" style="fill:#EBEBEB;" width="33.122" height="0.25"/>
		<rect x="322.527" y="401.208" style="fill:#EBEBEB;" width="8.693" height="0.25"/>
		<rect x="396.586" y="389.208" style="fill:#EBEBEB;" width="19.192" height="0.25"/>
		<rect x="52.459" y="390.888" style="fill:#EBEBEB;" width="43.193" height="0.25"/>
		<rect x="104.556" y="390.888" style="fill:#EBEBEB;" width="6.333" height="0.25"/>
		<rect x="131.471" y="395.111" style="fill:#EBEBEB;" width="93.676" height="0.25"/>
		<path style="fill:#EBEBEB;" d="M237.014,337.8H43.915c-3.147,0-5.708-2.561-5.708-5.708V60.66c0-3.147,2.561-5.708,5.708-5.708
			h193.099c3.146,0,5.707,2.561,5.707,5.708v271.432C242.721,335.239,240.16,337.8,237.014,337.8z M43.915,55.203
			c-3.01,0-5.458,2.448-5.458,5.458v271.432c0,3.01,2.448,5.458,5.458,5.458h193.099c3.009,0,5.457-2.448,5.457-5.458V60.66
			c0-3.009-2.448-5.458-5.457-5.458H43.915z"/>
		<path style="fill:#EBEBEB;" d="M453.31,337.8H260.212c-3.147,0-5.707-2.561-5.707-5.708V60.66c0-3.147,2.561-5.708,5.707-5.708
			H453.31c3.148,0,5.708,2.561,5.708,5.708v271.432C459.019,335.239,456.458,337.8,453.31,337.8z M260.212,55.203
			c-3.009,0-5.457,2.448-5.457,5.458v271.432c0,3.01,2.448,5.458,5.457,5.458H453.31c3.01,0,5.458-2.448,5.458-5.458V60.66
			c0-3.009-2.448-5.458-5.458-5.458H260.212z"/>
	</g>
	<g>
		<g>
			<g>
				<rect x="96.948" y="100.24" style="fill:#F5F5F5;" width="94.673" height="213.274"/>
				
					<rect x="41.647" y="163.112" transform="matrix(-1.836970e-16 1 -1 -1.836970e-16 351.1615 62.5933)" style="fill:#FAFAFA;" width="205.274" height="87.53"/>
				<rect x="143.278" y="103.213" style="fill:#F5F5F5;" width="2.012" height="208.302"/>
				<rect x="94.763" y="97.465" style="fill:#F5F5F5;" width="99.043" height="10.037"/>
				<g>
					<rect x="94.763" y="108.613" style="fill:#F5F5F5;" width="99.043" height="1.19"/>
					<rect x="94.763" y="111.314" style="fill:#F5F5F5;" width="99.043" height="1.189"/>
					<rect x="94.763" y="114.014" style="fill:#F5F5F5;" width="99.043" height="1.189"/>
					<rect x="94.763" y="116.714" style="fill:#F5F5F5;" width="99.043" height="1.189"/>
					<rect x="94.763" y="119.414" style="fill:#F5F5F5;" width="99.043" height="1.189"/>
					<rect x="94.763" y="122.114" style="fill:#F5F5F5;" width="99.043" height="1.189"/>
					<rect x="94.763" y="124.814" style="fill:#F5F5F5;" width="99.043" height="1.19"/>
					<rect x="94.763" y="127.514" style="fill:#F5F5F5;" width="99.043" height="1.19"/>
					<rect x="94.763" y="130.214" style="fill:#F5F5F5;" width="99.043" height="1.19"/>
					<rect x="94.763" y="132.914" style="fill:#F5F5F5;" width="99.043" height="1.19"/>
					<rect x="94.763" y="135.615" style="fill:#F5F5F5;" width="99.043" height="1.19"/>
					<rect x="94.763" y="138.315" style="fill:#F5F5F5;" width="99.043" height="1.189"/>
					<rect x="94.763" y="141.015" style="fill:#F5F5F5;" width="99.043" height="1.189"/>
					<rect x="94.763" y="143.715" style="fill:#F5F5F5;" width="99.043" height="1.189"/>
					<rect x="94.763" y="146.415" style="fill:#F5F5F5;" width="99.043" height="1.189"/>
					<rect x="94.763" y="149.115" style="fill:#F5F5F5;" width="99.043" height="1.189"/>
					<rect x="94.763" y="151.815" style="fill:#F5F5F5;" width="99.043" height="1.19"/>
					<rect x="94.763" y="154.515" style="fill:#F5F5F5;" width="99.043" height="1.19"/>
				</g>
			</g>
			<g>
				<rect x="209.034" y="100.24" style="fill:#F5F5F5;" width="94.673" height="213.274"/>
				
					<rect x="153.733" y="163.112" transform="matrix(-1.836970e-16 1 -1 -1.836970e-16 463.2475 -49.4927)" style="fill:#FAFAFA;" width="205.274" height="87.53"/>
				<rect x="255.364" y="103.213" style="fill:#F5F5F5;" width="2.012" height="208.302"/>
				<rect x="206.849" y="97.465" style="fill:#F5F5F5;" width="99.043" height="10.037"/>
				<g>
					<rect x="206.849" y="108.613" style="fill:#F5F5F5;" width="99.043" height="1.19"/>
					<rect x="206.849" y="111.314" style="fill:#F5F5F5;" width="99.043" height="1.189"/>
					<rect x="206.849" y="114.014" style="fill:#F5F5F5;" width="99.043" height="1.189"/>
					<rect x="206.849" y="116.714" style="fill:#F5F5F5;" width="99.043" height="1.189"/>
					<rect x="206.849" y="119.414" style="fill:#F5F5F5;" width="99.043" height="1.189"/>
					<rect x="206.849" y="122.114" style="fill:#F5F5F5;" width="99.043" height="1.189"/>
					<rect x="206.849" y="124.814" style="fill:#F5F5F5;" width="99.043" height="1.19"/>
					<rect x="206.849" y="127.514" style="fill:#F5F5F5;" width="99.043" height="1.19"/>
					<rect x="206.849" y="130.214" style="fill:#F5F5F5;" width="99.043" height="1.19"/>
					<rect x="206.849" y="132.914" style="fill:#F5F5F5;" width="99.043" height="1.19"/>
					<rect x="206.849" y="135.615" style="fill:#F5F5F5;" width="99.043" height="1.19"/>
					<rect x="206.849" y="138.315" style="fill:#F5F5F5;" width="99.043" height="1.189"/>
					<rect x="206.849" y="141.015" style="fill:#F5F5F5;" width="99.043" height="1.189"/>
					<rect x="206.849" y="143.715" style="fill:#F5F5F5;" width="99.043" height="1.189"/>
					<rect x="206.849" y="146.415" style="fill:#F5F5F5;" width="99.043" height="1.189"/>
					<rect x="206.849" y="149.115" style="fill:#F5F5F5;" width="99.043" height="1.189"/>
					<rect x="206.849" y="151.815" style="fill:#F5F5F5;" width="99.043" height="1.19"/>
					<rect x="206.849" y="154.515" style="fill:#F5F5F5;" width="99.043" height="1.19"/>
				</g>
			</g>
			<g>
				<rect x="321.12" y="100.24" style="fill:#F5F5F5;" width="94.673" height="213.274"/>
				
					<rect x="265.819" y="163.112" transform="matrix(-1.836970e-16 1 -1 -1.836970e-16 575.3335 -161.5787)" style="fill:#FAFAFA;" width="205.274" height="87.53"/>
				<rect x="367.45" y="103.213" style="fill:#F5F5F5;" width="2.012" height="208.302"/>
				<rect x="318.935" y="97.465" style="fill:#F5F5F5;" width="99.043" height="10.037"/>
				<g>
					<rect x="318.935" y="108.613" style="fill:#F5F5F5;" width="99.043" height="1.19"/>
					<rect x="318.935" y="111.314" style="fill:#F5F5F5;" width="99.043" height="1.189"/>
					<rect x="318.935" y="114.014" style="fill:#F5F5F5;" width="99.043" height="1.189"/>
					<rect x="318.935" y="116.714" style="fill:#F5F5F5;" width="99.043" height="1.189"/>
					<rect x="318.935" y="119.414" style="fill:#F5F5F5;" width="99.043" height="1.189"/>
					<rect x="318.935" y="122.114" style="fill:#F5F5F5;" width="99.043" height="1.189"/>
					<rect x="318.935" y="124.814" style="fill:#F5F5F5;" width="99.043" height="1.19"/>
					<rect x="318.935" y="127.514" style="fill:#F5F5F5;" width="99.043" height="1.19"/>
					<rect x="318.935" y="130.214" style="fill:#F5F5F5;" width="99.043" height="1.19"/>
					<rect x="318.935" y="132.914" style="fill:#F5F5F5;" width="99.043" height="1.19"/>
					<rect x="318.935" y="135.615" style="fill:#F5F5F5;" width="99.043" height="1.19"/>
					<rect x="318.935" y="138.315" style="fill:#F5F5F5;" width="99.043" height="1.189"/>
					<rect x="318.935" y="141.015" style="fill:#F5F5F5;" width="99.043" height="1.189"/>
					<rect x="318.935" y="143.715" style="fill:#F5F5F5;" width="99.043" height="1.189"/>
					<rect x="318.935" y="146.415" style="fill:#F5F5F5;" width="99.043" height="1.189"/>
					<rect x="318.935" y="149.115" style="fill:#F5F5F5;" width="99.043" height="1.189"/>
					<rect x="318.935" y="151.815" style="fill:#F5F5F5;" width="99.043" height="1.19"/>
					<rect x="318.935" y="154.515" style="fill:#F5F5F5;" width="99.043" height="1.19"/>
				</g>
			</g>
		</g>
		<g>
			<path style="fill:#E0E0E0;" d="M411.849,356.073c0,0,5.064-11.049-0.722-21.94c-5.786-10.892-7.463-13.457-3.775-15.689
				c3.688-2.231,5.38,8.713,5.38,8.713s3.109-7.529,0.542-15.409c-2.567-7.88-4.177-20.714-0.671-22.091
				c3.506-1.377,0.669,16.011,3.711,21.937c0,0,2.555-6.598,2.975-12.927c0.42-6.329-0.236-16.435,2.532-19.027
				c2.768-2.592,4.542-0.799,1.821,13.168c-2.721,13.967-2.701,25.321-2.701,25.321s6.009-18.322,10.042-18.856
				c4.033-0.534,4.028,5.399,0.576,10.545c-3.452,5.146-10.109,14.366-11.201,19.109c0,0,6.596-13.788,12.529-9.562
				c5.933,4.226-5.164,12.554-10.11,15.563c-4.946,3.009-8.381,21.873-8.381,21.873L411.849,356.073z"/>
			<path style="fill:#EBEBEB;" d="M415.847,360.604c0,0-4.931-11.123,0.985-21.928c5.916-10.805,7.624-13.345,3.962-15.631
				c-3.661-2.286-5.484,8.632-5.484,8.632s-3.018-7.575-0.357-15.416c2.661-7.841,4.425-20.65,0.936-22.079
				c-3.489-1.429-0.861,15.999-3.974,21.88c0,0-2.476-6.635-2.82-12.97c-0.344-6.335,0.433-16.43-2.304-19.064
				c-2.737-2.633-4.532-0.866-1.979,13.14c2.553,14.006,2.397,25.359,2.397,25.359s-5.789-18.409-9.815-19.004
				c-4.026-0.594-4.092,5.338-0.702,10.536s9.936,14.515,10.971,19.275c0,0-6.43-13.885-12.413-9.748
				c-5.983,4.137,5.013,12.63,9.923,15.712c4.91,3.083,8.118,21.996,8.118,21.996L415.847,360.604z"/>
			<g>
				<polygon style="fill:#EBEBEB;" points="393.104,352.675 433.838,352.675 430.542,381.825 396.401,381.825 				"/>
			</g>
		</g>
		<g>
			<g>
				<path style="fill:#EBEBEB;" d="M87.762,350.6c-0.147-0.988-3.524-24.293,3.242-32.339c1.498-1.781,3.388-2.712,5.618-2.767
					c13.658-0.32,15.527,10.65,15.544,10.762l-1.611,0.248c-0.062-0.393-1.682-9.677-13.893-9.381
					c-1.767,0.043-3.21,0.758-4.41,2.186c-6.299,7.49-2.912,30.815-2.877,31.049L87.762,350.6z"/>
			</g>
			<g>
				<path style="fill:#EBEBEB;" d="M86.935,349.538l-1.629-0.051c0.007-0.214,0.541-21.472-9.933-25.865
					c-10.266-4.3-14.883,4.541-15.075,4.921l-1.456-0.732c0.053-0.106,5.472-10.593,17.161-5.691
					C87.509,326.943,86.964,348.618,86.935,349.538z"/>
			</g>
			<g>
				<path style="fill:#EBEBEB;" d="M86.983,351.208c0-0.339-0.098-33.961-6.653-43.795c-6.294-9.441-16.447-4.996-16.876-4.801
					l-0.674-1.484c0.118-0.053,11.835-5.226,18.906,5.382c6.828,10.242,6.926,43.295,6.927,44.697L86.983,351.208z"/>
			</g>
			<path style="fill:#E0E0E0;" d="M98.576,316.302c0,0-5.964,2.198-4.191,7.389c1.773,5.19,20.631,13.733,20.631,13.733
				s7.898-7.239,0.645-19.012C108.408,306.639,98.737,312.588,98.576,316.302z"/>
			<path style="fill:#E0E0E0;" d="M80.034,305.643c0,0,4.234-0.455,3.893-3.033c-0.341-2.579-16.459-9.216-25.968,1.517
				c0,0,6.089,10.459,14.891,10.596C81.652,314.859,80.034,305.643,80.034,305.643z"/>
			<path style="fill:#E0E0E0;" d="M75.688,322.871c0,0,2.922-2.359-0.231-3.511c-3.153-1.152-18.627-0.824-18.788,14.503
				c0,0,18.021,2.995,20.252-2.844C79.152,325.181,75.688,322.871,75.688,322.871z"/>
			<polygon style="fill:#EBEBEB;" points="101.78,381.825 73.815,381.825 70.798,351.207 104.797,351.207 			"/>
			<rect x="69.305" y="347.829" style="fill:#E0E0E0;" width="36.986" height="6.756"/>
		</g>
	</g>
</g>
<g id="Background_Simple" style="display:none;">
	<g style="display:inline;">
		<path style="fill:#407BFF;" d="M104.556,101.625c27.919-59.449,127.059-51.062,165.317-9.255
			c38.258,41.806,50.696,68.599,85.208,52.983c34.512-15.616,78.518-11.44,81.043,38.164s-37.913,108.263-102.09,125.615
			c-64.177,17.352-64.161,78.759-149.1,66.368c-46.31-6.756-47.365-56.86-40.825-98.301S72.177,170.569,104.556,101.625z"/>
		<path style="opacity:0.9;fill:#FFFFFF;" d="M104.556,101.625c27.919-59.449,127.059-51.062,165.317-9.255
			c38.258,41.806,50.696,68.599,85.208,52.983c34.512-15.616,78.518-11.44,81.043,38.164s-37.913,108.263-102.09,125.615
			c-64.177,17.352-64.161,78.759-149.1,66.368c-46.31-6.756-47.365-56.86-40.825-98.301S72.177,170.569,104.556,101.625z"/>
	</g>
</g>
<g id="Shadow_1_">
	<ellipse id="_x3C_Path_x3E__359_" style="fill:#F5F5F5;" cx="250" cy="416.238" rx="193.889" ry="11.323"/>
</g>
<g id="Character_3">
	<g id="_x3C_Group_x3E__67_">
		<g>
			<path style="fill:#E4897B;" d="M318.895,196.722c0,0,0,9.579-3.033,13.295c-3.033,3.716-18.725,11.478-18.725,11.478
				s-9.354-0.018-10.216,0c-0.861,0.018-3.247,4.268-3.247,4.268l3.968,4.718c0,0,11.609-2.254,10.552-5.62
				c0,0,15.426-6.043,19.778-9.047c4.352-3.004,7.648-16.566,7.648-16.566L318.895,196.722z"/>
			<path style="fill:#407BFF;" d="M323.956,169.412c-4.659-1.697-7.303,30.236-7.303,30.236l12,4.196
				C328.653,203.843,332.973,172.695,323.956,169.412z"/>
			<path style="opacity:0.4;fill:#FFFFFF;enable-background:new    ;" d="M329.335,197.08c-0.3,3.98-0.68,6.76-0.68,6.76l-12-4.19
				c0,0,2.64-31.94,7.3-30.24c3.14,1.15,4.66,5.67,5.31,11.08c0,0,0,0,0,0.01C329.935,185.98,329.695,192.38,329.335,197.08z"/>
			<path style="opacity:0.2;enable-background:new    ;" d="M329.335,197.08c-5.57-6.55-2-18.13-2-18.13
				c0.63,0.32,1.28,0.85,1.93,1.54c0,0,0,0,0,0.01C329.935,185.98,329.695,192.38,329.335,197.08z"/>
		</g>
		<path style="fill:#263238;" d="M375.19,406.971h10.135c0.342,0.002,0.637,0.24,0.711,0.573l1.645,7.429
			c0.141,0.665-0.284,1.318-0.95,1.459c-0.089,0.019-0.18,0.028-0.271,0.027c-3.279-0.053-5.667-0.255-9.785-0.255
			c-2.536,0-10.188,0.265-13.691,0.265c-3.502,0-3.959-3.46-2.526-3.778c6.431-1.401,11.271-3.343,13.33-5.19
			C374.171,407.152,374.672,406.961,375.19,406.971z"/>
		<path style="fill:#263238;" d="M332.208,406.706h10.135c0.342,0.002,0.637,0.24,0.711,0.573l1.645,7.429
			c0.141,0.665-0.284,1.318-0.95,1.459c-0.089,0.019-0.18,0.028-0.271,0.027c-3.279-0.053-5.667-0.255-9.785-0.255
			c-2.536,0-10.188,0.265-13.691,0.265c-3.502,0-3.959-3.46-2.526-3.778c6.431-1.401,11.271-3.343,13.33-5.19
			C331.189,406.886,331.69,406.696,332.208,406.706z"/>
		<path style="opacity:0.1;fill:#FFFFFF;" d="M375.19,406.971h10.135c0.342,0.002,0.637,0.24,0.711,0.573l1.645,7.429
			c0.141,0.665-0.284,1.318-0.95,1.459c-0.089,0.019-0.18,0.028-0.271,0.027c-3.279-0.053-5.667-0.255-9.785-0.255
			c-2.536,0-10.188,0.265-13.691,0.265c-3.502,0-3.959-3.46-2.526-3.778c6.431-1.401,11.271-3.343,13.33-5.19
			C374.171,407.152,374.672,406.961,375.19,406.971z"/>
		<path style="opacity:0.1;fill:#FFFFFF;" d="M332.208,406.706h10.135c0.342,0.002,0.637,0.24,0.711,0.573l1.645,7.429
			c0.141,0.665-0.284,1.318-0.95,1.459c-0.089,0.019-0.18,0.028-0.271,0.027c-3.279-0.053-5.667-0.255-9.785-0.255
			c-2.536,0-10.188,0.265-13.691,0.265c-3.502,0-3.959-3.46-2.526-3.778c6.431-1.401,11.271-3.343,13.33-5.19
			C331.189,406.886,331.69,406.696,332.208,406.706z"/>
		<path style="fill:#407BFF;" d="M380.565,219.094h-44.281c-4.211,22.991-17.389,116.35-7.934,188.84h14.991
			c0,0-1.388-110.094,11.848-145.671c1.522,19.04,16.998,145.596,16.998,145.596h15.261c0,0-2.279-47.608-4.563-92.578
			C381.446,286.966,380.626,224.908,380.565,219.094z"/>
		<path style="opacity:0.2;fill:#FFFFFF;enable-background:new    ;" d="M380.565,219.094h-44.281
			c-4.211,22.991-17.389,116.35-7.934,188.84h14.991c0,0-1.388-110.094,11.848-145.671c1.522,19.04,16.998,145.596,16.998,145.596
			h15.261c0,0-2.279-47.608-4.563-92.578C381.446,286.966,380.626,224.908,380.565,219.094z"/>
		<path style="opacity:0.2;enable-background:new    ;" d="M355.185,262.268c-1.953,5.243-3.577,11.791-4.946,19.156
			c-1.238-16.943,3.715-34.913,3.715-34.913L355.185,262.268z"/>
		<g>
			<path style="fill:#407BFF;" d="M380.691,220.481l-45.348,1.185c1.256-25.966-10.98-42.406-12.566-50.384
				c-0.229-1.151,0.496-2.282,1.643-2.531c2.247-0.488,4.562-0.911,6.901-1.27c11.75-1.82,24.13-2.15,31.84-2.14
				c4.72,0.01,3.68,0.14,3.68,0.14C374.835,171.758,381.151,206.101,380.691,220.481z"/>
			<path style="opacity:0.4;fill:#FFFFFF;enable-background:new    ;" d="M380.691,220.481l-45.348,1.185
				c1.256-25.966-10.98-42.406-12.566-50.384c-0.229-1.151,0.496-2.282,1.643-2.531c2.247-0.488,4.562-0.911,6.901-1.27
				c11.75-1.82,24.13-2.15,31.84-2.14c4.72,0.01,3.68,0.14,3.68,0.14C374.835,171.758,381.151,206.101,380.691,220.481z"/>
		</g>
		<g>
			<path style="fill:#E4897B;" d="M352.83,166.86c-0.97,5.95-10.37,11.91-10.37,11.91s-4.81-5.31-5.2-9.36c0,0,0.92-0.86,1.5-1.99
				c0.28-0.55,0.48-1.16,0.45-1.76c-0.05-1.07-0.49-2.17-1.11-3.26c-0.31-0.57-0.69-1.13-1.09-1.68l6.53-8.1l1.5-1.87
				c0.07,0.56,0.16,1.18,0.27,1.83c0.23,1.33,0.54,2.81,0.96,4.31C347.45,161.06,349.48,165.36,352.83,166.86z"/>
			<path style="opacity:0.2;enable-background:new    ;" d="M346.27,156.89c-0.33,4.01-1.83,9.53-7.51,10.53
				c0.28-0.55,0.48-1.16,0.45-1.76c-0.05-1.07-0.49-2.17-1.11-3.26c-0.31-0.57-0.69-1.13-1.09-1.68l6.53-8.1
				c0.57-0.03,1.17-0.04,1.77-0.04C345.54,153.91,345.85,155.39,346.27,156.89z"/>
		</g>
		<g>
			<path style="fill:#263238;" d="M319.852,136.07c0,0-0.153,11.301,6.31,14.746c6.463,3.445,3.616-17.159,3.616-17.159
				L319.852,136.07z"/>
			<path style="fill:#E4897B;" d="M325.653,157.432c0.21,0.347,0.436,0.679,0.679,0.995c0.869,1.161,1.937,2.101,3.109,2.816
				c1.238,0.769,2.599,1.265,3.992,1.504c2.536,0.432,5.172-0.014,7.368-1.417c1.455-0.93,2.724-2.275,3.63-4.07
				c2.641-5.136,1.116-9.621-0.853-17.408c-0.401-1.684-1.176-3.255-2.294-4.565c-3.905-4.65-10.84-5.24-15.471-1.341
				C319.278,139.367,321.827,151.07,325.653,157.432z"/>
			<path style="fill:#263238;" d="M332.635,145.669c0.239,0.604,0.031,1.23-0.383,1.36c-0.414,0.13-0.897-0.278-1.097-0.897
				c-0.201-0.619-0.022-1.234,0.383-1.36C331.943,144.645,332.431,145.039,332.635,145.669z"/>
			<path style="fill:#263238;" d="M325.587,147.899c0.239,0.604,0.022,1.233-0.383,1.36c-0.405,0.127-0.897-0.278-1.098-0.897
				c-0.2-0.619-0.022-1.233,0.383-1.36C324.894,146.875,325.398,147.308,325.587,147.899z"/>
			<path style="fill:#DE5753;" d="M327.924,147.497c-0.139,2.142-0.573,4.254-1.291,6.277c1.063,0.346,2.225,0.203,3.173-0.389
				L327.924,147.497z"/>
			<path style="fill:#263238;" d="M322.021,145.714c0.141,0.028,0.286-0.02,0.381-0.128c0.616-0.757,1.554-1.18,2.529-1.139
				c0.209,0.028,0.401-0.119,0.428-0.328c0.027-0.209-0.12-0.401-0.329-0.428c0,0-0.001,0-0.002,0
				c-1.232-0.083-2.427,0.437-3.207,1.395c-0.142,0.156-0.13,0.398,0.026,0.539c0.002,0.002,0.005,0.004,0.007,0.006
				C321.906,145.667,321.962,145.695,322.021,145.714z"/>
			<path style="fill:#263238;" d="M333.138,142.409c0.073-0.026,0.136-0.074,0.181-0.137c0.085-0.193-0.002-0.418-0.195-0.503
				c-0.003-0.001-0.005-0.002-0.008-0.003c-1.13-0.508-2.436-0.435-3.502,0.196c-0.175,0.118-0.221,0.355-0.103,0.53l0,0.001
				c0.122,0.17,0.355,0.215,0.531,0.103l0,0c0.856-0.474,1.885-0.515,2.776-0.112C332.931,142.506,333.047,142.479,333.138,142.409z
				"/>
			<path style="fill:#263238;" d="M334.939,132.076l0.488,3.533c1.281,0.301,2.293,1.388,2.132,2.873
				c-0.343,3.171,2.472,7.203,5.152,8.399c0,0-0.262-1.265,0.869-1.248c1.131,0.017,2.559,6.588,1.327,10.229
				c0,0,2.363-3.624,2.311-10.905c-0.048-6.734-1.237-12.042-3.179-14.138L334.939,132.076z"/>
			<path style="fill:#E4897B;" d="M348.911,145.07c-0.301,2.001-1.384,3.801-3.01,5.005c-2.165,1.579-4.183-0.134-4.371-2.667
				c-0.146-2.253,0.77-5.856,3.333-6.41C347.426,140.444,349.25,142.609,348.911,145.07z"/>
			<path style="fill:none;stroke:#263238;stroke-width:0.5;stroke-linecap:round;stroke-linejoin:round;stroke-miterlimit:10;" d="
				M334.638,153.611c0,0,0.19,2.982-2.663,3.273"/>
			<path style="fill:#263238;" d="M345.001,132.236c0,0-0.393-4.704-8.405-6.269c-8.012-1.565-14.637,4.565-20.173,2.85
				s-2.295,10.712,8.155,9.336C335.027,136.776,345.001,132.236,345.001,132.236z"/>
		</g>
		<path style="opacity:0.2;enable-background:new    ;" d="M362.104,176.181c0,0-3.819,17.334-5.17,22.676
			c-2.736,10.813-15.855,22.073-15.855,22.073s8.184-1.909,16.778-3.366c10.648-1.805,20.629-16.486,14.666-35.992L362.104,176.181z
			"/>
		<g>
			<path style="fill:#E4897B;" d="M361.78,192.791c0,0,0,9.58-3.033,13.295c-3.033,3.716-18.725,11.478-18.725,11.478
				s-9.354-0.018-10.216,0c-0.861,0.018-3.247,4.268-3.247,4.268l3.968,4.717c0,0,11.609-2.254,10.552-5.62
				c0,0,15.426-6.043,19.778-9.047c4.352-3.004,7.648-16.566,7.648-16.566L361.78,192.791z"/>
			<path style="fill:#407BFF;" d="M366.841,165.481c-4.66-1.697-7.303,30.236-7.303,30.236l12,4.196
				C371.539,199.913,375.858,168.765,366.841,165.481z"/>
			<path style="opacity:0.4;fill:#FFFFFF;enable-background:new    ;" d="M366.841,165.481c-4.66-1.697-7.303,30.236-7.303,30.236
				l12,4.196C371.539,199.913,375.858,168.765,366.841,165.481z"/>
		</g>
	</g>
</g>
<g id="Character_2">
	<g>
		<g>
			<g>
				<g>
					<path style="fill:#2E353A;" d="M244.956,416.47c-21.376,0-38.768-21.311-38.768-47.506c0-26.194,17.391-47.506,38.768-47.506
						c21.377,0,38.768,21.311,38.768,47.506C283.724,395.158,266.332,416.47,244.956,416.47z M244.956,326.458
						c-18.62,0-33.768,19.068-33.768,42.506s15.148,42.506,33.768,42.506c18.62,0,33.768-19.068,33.768-42.506
						S263.575,326.458,244.956,326.458z"/>
				</g>
				<g>
					<path style="fill:none;" d="M236.245,372.358c-0.179-0.768-0.295-1.569-0.349-2.394h-19.188
						c0.083,4.084,0.666,8.008,1.686,11.661L236.245,372.358z"/>
					<path style="fill:none;" d="M237.892,376.377c-0.402-0.64-0.748-1.339-1.04-2.079l-17.864,9.273
						c1.267,3.846,3.018,7.357,5.153,10.4L237.892,376.377z"/>
					<path style="fill:none;" d="M243.956,405.936v-25.278c-0.573-0.081-1.129-0.229-1.665-0.441l-7.661,23.185
						C237.536,404.901,240.675,405.786,243.956,405.936z"/>
					<path style="fill:none;" d="M235.896,367.964c0.058-0.883,0.186-1.739,0.385-2.555l-17.742-9.597
						c-1.106,3.793-1.745,7.883-1.832,12.152H235.896z"/>
					<path style="fill:none;" d="M265.771,343.957l-13.752,17.594c0.402,0.64,0.748,1.338,1.04,2.079l17.865-9.274
						C269.656,350.51,267.906,347,265.771,343.957z"/>
					<path style="fill:none;" d="M219.156,353.871l17.754,9.603c0.28-0.684,0.608-1.328,0.982-1.924l-13.752-17.594
						C222.096,346.871,220.408,350.216,219.156,353.871z"/>
					<path style="fill:none;" d="M247.489,380.261c-0.495,0.186-1.007,0.323-1.533,0.397v25.278
						c3.134-0.144,6.139-0.954,8.935-2.333L247.489,380.261z"/>
					<path style="fill:none;" d="M245.956,331.991v25.278c0.573,0.081,1.129,0.229,1.665,0.441l7.661-23.184
						C252.374,333.027,249.236,332.142,245.956,331.991z"/>
					<path style="fill:none;" d="M242.422,357.666c0.495-0.186,1.007-0.323,1.533-0.397v-25.278
						c-3.134,0.144-6.139,0.954-8.935,2.333L242.422,357.666z"/>
					<path style="fill:none;" d="M239.146,359.907c0.457-0.491,0.951-0.926,1.477-1.295l-7.391-23.308
						c-2.915,1.747-5.564,4.122-7.848,6.996L239.146,359.907z"/>
					<path style="fill:none;" d="M270.756,384.057l-17.754-9.604c-0.28,0.684-0.608,1.328-0.982,1.924l13.752,17.594
						C267.815,391.057,269.503,387.712,270.756,384.057z"/>
					<path style="fill:none;" d="M240.511,379.228c-0.483-0.351-0.941-0.753-1.364-1.207l-13.762,17.608
						c2.185,2.75,4.702,5.048,7.47,6.772L240.511,379.228z"/>
					<path style="fill:none;" d="M250.765,378.021c-0.457,0.491-0.951,0.926-1.477,1.295l7.391,23.308
						c2.915-1.747,5.564-4.122,7.848-6.996L250.765,378.021z"/>
					<path style="fill:none;" d="M249.4,358.7c0.483,0.351,0.941,0.753,1.364,1.207l13.762-17.607
						c-2.185-2.75-4.703-5.048-7.47-6.772L249.4,358.7z"/>
					<path style="fill:none;" d="M254.016,369.964c-0.058,0.883-0.186,1.739-0.386,2.555l17.742,9.597
						c1.106-3.793,1.745-7.883,1.832-12.152H254.016z"/>
					<path style="fill:none;" d="M253.666,365.569c0.179,0.768,0.295,1.57,0.349,2.395h19.189
						c-0.083-4.084-0.667-8.008-1.686-11.662L253.666,365.569z"/>
					<path style="fill:#407BFF;" d="M244.956,325.958c-18.895,0-34.268,19.292-34.268,43.006c0,23.714,15.372,43.006,34.268,43.006
						c18.896,0,34.268-19.292,34.268-43.006C279.224,345.25,263.851,325.958,244.956,325.958z M252.019,361.551l13.752-17.594
						c2.135,3.043,3.885,6.554,5.153,10.4l-17.865,9.274C252.767,362.889,252.421,362.191,252.019,361.551z M245.956,357.269
						v-25.278c3.281,0.15,6.419,1.036,9.326,2.535l-7.661,23.184C247.085,357.498,246.528,357.35,245.956,357.269z M243.956,357.269
						c-0.526,0.075-1.038,0.212-1.533,0.397l-7.402-23.342c2.796-1.379,5.801-2.189,8.935-2.333V357.269z M236.91,363.475
						l-17.754-9.603c1.253-3.655,2.94-7.001,4.985-9.914l13.752,17.594C237.518,362.147,237.189,362.791,236.91,363.475z
						 M236.281,365.409c-0.2,0.816-0.328,1.672-0.385,2.555h-19.188c0.087-4.269,0.726-8.358,1.832-12.152L236.281,365.409z
						 M235.896,369.964c0.054,0.825,0.17,1.626,0.349,2.394l-17.852,9.267c-1.019-3.654-1.602-7.577-1.686-11.661H235.896z
						 M236.852,374.297c0.292,0.741,0.638,1.44,1.04,2.079l-13.752,17.594c-2.135-3.043-3.886-6.554-5.153-10.4L236.852,374.297z
						 M243.956,380.658v25.278c-3.281-0.15-6.419-1.036-9.326-2.534l7.661-23.185C242.826,380.429,243.383,380.577,243.956,380.658z
						 M245.956,380.659c0.526-0.074,1.038-0.212,1.533-0.397l7.402,23.342c-2.796,1.379-5.801,2.189-8.935,2.333V380.659z
						 M253.001,374.453l17.754,9.604c-1.253,3.655-2.941,7-4.985,9.914l-13.752-17.594
						C252.393,375.781,252.722,375.137,253.001,374.453z M253.63,372.519c0.2-0.816,0.328-1.672,0.386-2.555h19.189
						c-0.087,4.269-0.726,8.358-1.832,12.152L253.63,372.519z M254.016,367.964c-0.054-0.826-0.171-1.627-0.349-2.395l17.852-9.267
						c1.02,3.654,1.603,7.578,1.686,11.662H254.016z M264.527,342.3l-13.762,17.607c-0.423-0.455-0.881-0.857-1.364-1.207
						l7.656-23.172C259.824,337.251,262.341,339.55,264.527,342.3z M233.233,335.304l7.391,23.308
						c-0.526,0.369-1.02,0.804-1.477,1.295L225.385,342.3C227.668,339.426,230.317,337.051,233.233,335.304z M225.385,395.628
						l13.762-17.608c0.423,0.455,0.881,0.857,1.364,1.207l-7.656,23.172C230.087,400.677,227.57,398.378,225.385,395.628z
						 M256.678,402.624l-7.391-23.308c0.526-0.369,1.02-0.804,1.477-1.295l13.762,17.608
						C262.243,398.502,259.594,400.877,256.678,402.624z"/>
				</g>
				<g style="opacity:0.2;enable-background:new    ;">
					<path d="M244.956,325.958c-18.895,0-34.268,19.292-34.268,43.006c0,23.714,15.372,43.006,34.268,43.006
						c18.896,0,34.268-19.292,34.268-43.006C279.224,345.25,263.851,325.958,244.956,325.958z M252.019,361.551l13.752-17.594
						c2.135,3.043,3.885,6.554,5.153,10.4l-17.865,9.274C252.767,362.889,252.421,362.191,252.019,361.551z M245.956,357.269
						v-25.278c3.281,0.15,6.419,1.036,9.326,2.535l-7.661,23.184C247.085,357.498,246.528,357.35,245.956,357.269z M243.956,357.269
						c-0.526,0.075-1.038,0.212-1.533,0.397l-7.402-23.342c2.796-1.379,5.801-2.189,8.935-2.333V357.269z M236.91,363.475
						l-17.754-9.603c1.253-3.655,2.94-7.001,4.985-9.914l13.752,17.594C237.518,362.147,237.189,362.791,236.91,363.475z
						 M236.281,365.409c-0.2,0.816-0.328,1.672-0.385,2.555h-19.188c0.087-4.269,0.726-8.358,1.832-12.152L236.281,365.409z
						 M235.896,369.964c0.054,0.825,0.17,1.626,0.349,2.394l-17.852,9.267c-1.019-3.654-1.602-7.577-1.686-11.661H235.896z
						 M236.852,374.297c0.292,0.741,0.638,1.44,1.04,2.079l-13.752,17.594c-2.135-3.043-3.886-6.554-5.153-10.4L236.852,374.297z
						 M243.956,380.658v25.278c-3.281-0.15-6.419-1.036-9.326-2.534l7.661-23.185C242.826,380.429,243.383,380.577,243.956,380.658z
						 M245.956,380.659c0.526-0.074,1.038-0.212,1.533-0.397l7.402,23.342c-2.796,1.379-5.801,2.189-8.935,2.333V380.659z
						 M253.001,374.453l17.754,9.604c-1.253,3.655-2.941,7-4.985,9.914l-13.752-17.594
						C252.393,375.781,252.722,375.137,253.001,374.453z M253.63,372.519c0.2-0.816,0.328-1.672,0.386-2.555h19.189
						c-0.087,4.269-0.726,8.358-1.832,12.152L253.63,372.519z M254.016,367.964c-0.054-0.826-0.171-1.627-0.349-2.395l17.852-9.267
						c1.02,3.654,1.603,7.578,1.686,11.662H254.016z M264.527,342.3l-13.762,17.607c-0.423-0.455-0.881-0.857-1.364-1.207
						l7.656-23.172C259.824,337.251,262.341,339.55,264.527,342.3z M233.233,335.304l7.391,23.308
						c-0.526,0.369-1.02,0.804-1.477,1.295L225.385,342.3C227.668,339.426,230.317,337.051,233.233,335.304z M225.385,395.628
						l13.762-17.608c0.423,0.455,0.881,0.857,1.364,1.207l-7.656,23.172C230.087,400.677,227.57,398.378,225.385,395.628z
						 M256.678,402.624l-7.391-23.308c0.526-0.369,1.02-0.804,1.477-1.295l13.762,17.608
						C262.243,398.502,259.594,400.877,256.678,402.624z"/>
				</g>
			</g>
			<g>
				<path style="fill:#2E353A;" d="M271.016,322.082h-38.886c-4.556,0-8.262,3.706-8.262,8.262v38.62v25.954
					c0,2.039-1.659,3.697-3.698,3.697h-12.133c-1.105,0-2,0.896-2,2s0.895,2,2,2h12.133c4.245,0,7.698-3.453,7.698-7.697v-23.954
					h43.148c1.104,0,2-0.896,2-2v-44.882C273.016,322.978,272.12,322.082,271.016,322.082z M269.016,366.964h-41.148v-36.62
					c0-2.35,1.912-4.262,4.262-4.262h36.886V366.964z"/>
				<path style="opacity:0.3;fill:#FFFFFF;" d="M271.016,322.082h-38.886c-4.556,0-8.262,3.706-8.262,8.262v38.62v25.954
					c0,2.039-1.659,3.697-3.698,3.697h-12.133c-1.105,0-2,0.896-2,2s0.895,2,2,2h12.133c4.245,0,7.698-3.453,7.698-7.697v-23.954
					h43.148c1.104,0,2-0.896,2-2v-44.882C273.016,322.978,272.12,322.082,271.016,322.082z M269.016,366.964h-41.148v-36.62
					c0-2.35,1.912-4.262,4.262-4.262h36.886V366.964z"/>
				<g>
					<path style="fill:#2E353A;" d="M275.634,235.32v64.416h-46.941c-4.151,0-7.517,3.365-7.517,7.516v33.423h50.441
						c5.023,0,9.094-4.072,9.094-9.094v-24.724v-7.121V235.32H275.634z"/>
					<path style="opacity:0.3;fill:#FFFFFF;" d="M275.634,235.32v64.416h-46.941c-4.151,0-7.517,3.365-7.517,7.516v33.423h50.441
						c5.023,0,9.094-4.072,9.094-9.094v-24.724v-7.121V235.32H275.634z"/>
				</g>
				<path style="fill:#2E353A;" d="M304.123,323.958h-76.319c-4.192,0-7.59,3.398-7.59,7.59v7.047h83.909V323.958z"/>
				<g>
					<path style="fill:#2E353A;" d="M311.654,336.514h-91.574c-1.149,0-2.081,0.931-2.081,2.081l0,0
						c0,1.149,0.932,2.081,2.081,2.081h91.574c1.102,0,2.013-0.859,2.077-1.959l0,0
						C313.801,337.522,312.851,336.514,311.654,336.514z"/>
					<path style="opacity:0.3;fill:#FFFFFF;" d="M311.654,336.514h-91.574c-1.149,0-2.081,0.931-2.081,2.081l0,0
						c0,1.149,0.932,2.081,2.081,2.081h91.574c1.102,0,2.013-0.859,2.077-1.959l0,0
						C313.801,337.522,312.851,336.514,311.654,336.514z"/>
				</g>
				<path style="fill:#2E353A;" d="M306.853,336.514h-29.435v-99.287h42.637v86.085
					C320.055,330.604,314.144,336.514,306.853,336.514z"/>
				<path style="fill:#2E353A;" d="M230.553,401.604h-24.652c-1.372,0-2.484-1.112-2.484-2.484v-1.395
					c0-1.372,1.112-2.484,2.484-2.484h24.652c1.372,0,2.484,1.112,2.484,2.484v1.395
					C233.037,400.492,231.925,401.604,230.553,401.604z"/>
				<path style="opacity:0.2;fill:#FFFFFF;" d="M230.553,401.604h-24.652c-1.372,0-2.484-1.112-2.484-2.484v-1.395
					c0-1.372,1.112-2.484,2.484-2.484h24.652c1.372,0,2.484,1.112,2.484,2.484v1.395
					C233.037,400.492,231.925,401.604,230.553,401.604z"/>
				<path style="fill:#2E353A;" d="M311.458,367.551l-38.707-13.772l38.707-13.771c0.78-0.277,1.188-1.136,0.91-1.916
					c-0.277-0.781-1.136-1.19-1.916-0.91l-42.176,15.006l-42.176-15.006c-0.782-0.281-1.639,0.129-1.916,0.91
					c-0.278,0.78,0.13,1.639,0.91,1.916l38.707,13.771l-38.707,13.772c-0.78,0.277-1.188,1.136-0.91,1.916
					c0.218,0.614,0.796,0.997,1.413,0.997c0.167,0,0.337-0.027,0.503-0.087l42.176-15.006l42.176,15.006
					c0.167,0.059,0.336,0.087,0.503,0.087c0.617,0,1.195-0.383,1.413-0.997C312.647,368.686,312.239,367.828,311.458,367.551z"/>
				<path style="opacity:0.3;fill:#FFFFFF;" d="M311.458,367.551l-38.707-13.772l38.707-13.771c0.78-0.277,1.188-1.136,0.91-1.916
					c-0.277-0.781-1.136-1.19-1.916-0.91l-42.176,15.006l-42.176-15.006c-0.782-0.281-1.639,0.129-1.916,0.91
					c-0.278,0.78,0.13,1.639,0.91,1.916l38.707,13.771l-38.707,13.772c-0.78,0.277-1.188,1.136-0.91,1.916
					c0.218,0.614,0.796,0.997,1.413,0.997c0.167,0,0.337-0.027,0.503-0.087l42.176-15.006l42.176,15.006
					c0.167,0.059,0.336,0.087,0.503,0.087c0.617,0,1.195-0.383,1.413-0.997C312.647,368.686,312.239,367.828,311.458,367.551z"/>
			</g>
			<g>
				<path style="fill:#263238;" d="M278.055,244.832c-0.829,0-1.5-0.672-1.5-1.5V231.84c0-4.576,3.581-8.334,8.152-8.555
					l9.681-0.467c0.833-0.051,1.531,0.599,1.57,1.426c0.04,0.827-0.598,1.53-1.426,1.57l-9.681,0.467
					c-2.97,0.144-5.297,2.585-5.297,5.559v11.492C279.555,244.16,278.883,244.832,278.055,244.832z"/>
			</g>
		</g>
		<g>
			<g>
				<polygon style="fill:#EBB376;" points="228.986,391.281 238.596,388.269 237.36,378.788 236.205,370.094 224.404,372.421 
					226.823,382.408 				"/>
				<polygon style="opacity:0.2;enable-background:new    ;" points="226.886,382.607 237.415,378.964 236.231,370.182 
					224.417,372.465 				"/>
			</g>
			<path style="fill:#2E353A;" d="M239.419,386.066c-0.049-0.745-11.736,0.258-11.736,0.258s-6.998,5.988-13.949,7.525
				c-6.951,1.538-2.923,4.681,4.897,4.402c7.82-0.279,13.788-0.493,19.345-0.692C243.532,397.359,239.927,393.783,239.419,386.066z"
				/>
			<path style="fill:#2E353A;" d="M210.733,306.901c6.981-12.005,44.162-14.266,68.785-15.955l8.399,21.694
				c0,0-36.751-2.035-47.354,9.935c-8.436,9.524-2.694,52.286-2.694,52.286l-15.81,1.123
				C222.058,375.984,198.357,328.183,210.733,306.901z"/>
			<path style="opacity:0.2;enable-background:new    ;" d="M210.733,306.901c6.981-12.005,44.162-14.266,68.785-15.955
				l8.399,21.694c0,0-36.751-2.035-47.354,9.935c-8.436,9.524-2.694,52.286-2.694,52.286l-15.81,1.123
				C222.058,375.984,198.357,328.183,210.733,306.901z"/>
			<g>
				<polygon style="fill:#EBB376;" points="248.986,391.281 258.596,388.269 257.36,378.788 256.205,370.094 244.404,372.421 
					246.823,382.408 				"/>
				<polygon style="opacity:0.2;enable-background:new    ;" points="246.886,382.607 257.415,378.964 256.231,370.182 
					244.417,372.465 				"/>
			</g>
			<g>
				<path style="fill:#407BFF;" d="M281.117,229.216c4.992-2.398,18.302-0.316,21.509,2.73c3.206,3.045-9.89,12.01-16.912,10.724
					C278.692,241.385,277.213,231.092,281.117,229.216z"/>
				<path style="opacity:0.2;enable-background:new    ;" d="M281.117,229.216c4.992-2.398,18.302-0.316,21.509,2.73
					c3.206,3.045-9.89,12.01-16.912,10.724C278.692,241.385,277.213,231.092,281.117,229.216z"/>
			</g>
			<path style="fill:#2E353A;" d="M255.847,290.742c0,0,8.711-16.846,9.162-18.157c2.317-6.775,44.44-0.662,44.44-0.662
				s11.614,35.284-2.847,45.415c-12.573,8.809-43.007,4.84-48.171,6.431c-4.779,1.472-7.117,6.602,0.15,54.408l-15.673,0.594
				c0,0-22.943-57.046-22.693-67.279C220.467,301.259,218.673,296.525,255.847,290.742z"/>
			<g>
				<path style="fill:#407BFF;" d="M256.374,288.264c0,0,12.271-43.264,16.615-54.439c1.612-4.148,40.22-0.132,40.22-0.132v52.357
					c0,0-28.876,10.219-37.319,5.977c-2.676-1.344-5.539-10.62-5.539-10.62s-5.397,10.06-8.743,10.142
					C259.711,291.595,256.374,288.264,256.374,288.264z"/>
				<path style="opacity:0.6;fill:#FFFFFF;" d="M313.21,233.69v52.36c0,0-28.88,10.22-37.32,5.98c-2.68-1.35-5.54-10.62-5.54-10.62
					s-5.39,10.06-8.74,10.14c-1.9,0.05-5.24-3.29-5.24-3.29s0.16-0.58,0.47-1.63c1.66-5.83,7.49-26.15,12-40.48
					c1.65-5.24,3.12-9.68,4.15-12.33C274.6,229.68,313.21,233.69,313.21,233.69z"/>
				<circle style="opacity:0.2;enable-background:new    ;" cx="280.059" cy="253.586" r="1.058"/>
				<circle style="opacity:0.2;enable-background:new    ;" cx="276.418" cy="264.132" r="1.058"/>
				<circle style="opacity:0.2;enable-background:new    ;" cx="272.327" cy="275.868" r="1.058"/>
				<path style="opacity:0.2;enable-background:new    ;" d="M313.21,256.05v29.3c-30.73,10.4-39.265,1.4-39.265,1.4
					s16.845-9.56,23.835-13.12s8.34-22.16,8.34-22.16S309.32,253.25,313.21,256.05z"/>
				<path style="opacity:0.2;enable-background:new    ;" d="M264.681,272.176c0.107,6.115,1.083,8.102,1.356,10.813
					c0.248,2.46-0.477,8.081-9.197,3.641c1.66-5.83,7.49-26.15,12-40.48c0.36,0.14,0.71,0.37,1.03,0.68
					C269.87,246.83,264.549,264.632,264.681,272.176z"/>
			</g>
			<g>
				<path style="fill:#EBB376;" d="M301.73,233.87c0,0-4.75,3.95-9.2,4.15c-4.44,0.2-8.68,6.73-8.68,6.73s-1.1-6.53-0.81-7.12
					c0.12-0.24-0.29-1.22-0.66-2.3v-0.01c-0.52-1.58-0.92-3.36,0.66-3.36c2.67-0.01,0.81-5.41,0.81-5.41l15.09-4.15
					c0,0-0.64,1.99-0.85,4.33C297.82,229.74,298.27,233.31,301.73,233.87z"/>
				<path style="opacity:0.2;enable-background:new    ;" d="M298.94,222.4c0,0-0.64,1.99-0.85,4.33
					c-3.01,3.57-8.28,8.13-15.71,8.59c-0.52-1.58-0.92-3.36,0.66-3.36c2.67-0.01,0.81-5.41,0.81-5.41L298.94,222.4z"/>
			</g>
			<g>
				<path style="fill:#407BFF;" d="M299.956,234.758c0,0-7.846,13.846-9.511,25.319c0,0,5.061-0.495,8.127,0
					c3.066,0.495,0.863-15.242,8.11-26.502L299.956,234.758z"/>
				<path style="opacity:0.2;enable-background:new    ;" d="M299.956,234.758c0,0-7.846,13.846-9.511,25.319
					c0,0,5.061-0.495,8.127,0c3.066,0.495,0.863-15.242,8.11-26.502L299.956,234.758z"/>
				<path style="fill:#407BFF;" d="M281.117,235.358c0,4.513,5.399,8.202,13.504,1.477c8.104-6.725,10.263-8.279,12.258-5.917
					c0,0,2.713,0.201,3.137,2.466c0,0-3.928,1.473-6.499,4.045c-2.571,2.571-13.452,12.066-20.473,11.275
					c-7.021-0.791-8.787-10.971-4.761-15.128c0,0,0.146-6.402,6.262-3.861C284.544,229.714,281.117,230.209,281.117,235.358z"/>
				<path style="fill:#407BFF;" d="M290.445,260.077c0,0-0.972,4.319-0.775,4.517c0.198,0.198,0.608-4.286,1.392-3.956
					c0.784,0.33-0.652,4.101,0,3.962c0.652-0.138-0.05-3.831,0.763-3.896c0.813-0.066-0.11,3.844,0.483,3.9
					c0.593,0.056,0.044-3.9,0.78-3.9c0.736,0-0.253,3.977,0.407,3.901c0.659-0.077,0.132-4.099,0.857-4.099
					c0.725,0-0.396,3.914,0.33,4.1c0.725,0.186-0.066-3.902,0.857-3.902c0.923,0-0.198,3.992,0.264,3.908
					c0.462-0.084-0.264-4.106,0.659-3.908c0.923,0.198-0.066,4.06,0.462,3.909c0.527-0.151-0.462-3.909,0.462-3.712
					c0.923,0.198,0.593,4.003,0.857,3.716c0.264-0.287,0.144-3.386,0.698-3.452c0.555-0.066-0.039,2.769,0.818,2.967
					c0.857,0.198-0.818-4.085-0.818-4.085S293.725,258.989,290.445,260.077z"/>
			</g>
			<g>
				<path style="fill:#EBB376;" d="M292.853,201.436c-8.42-1.328-11.841,2.753-13.826,11.333c-0.051,0.222-0.149,0.663-0.149,0.663
					c-5.236,4.639-2.17,17.487,9.752,17.487C303.45,230.918,306.836,203.64,292.853,201.436z"/>
				<path style="fill:#D58745;" d="M284.544,213.156c0,0-1.514,2.016-3.001,3.106c0,0,0.54,1.259,2.069,1.302L284.544,213.156z"/>
				<g>
					<path style="fill:#263238;" d="M289.806,213.28c-0.125,0.689,0.146,1.315,0.605,1.399c0.459,0.083,0.933-0.407,1.059-1.097
						c0.125-0.689-0.146-1.316-0.605-1.399C290.405,212.1,289.931,212.591,289.806,213.28z"/>
					<path style="fill:#263238;" d="M291.05,212.252l-1.392-0.86C289.658,211.392,290.175,212.788,291.05,212.252z"/>
				</g>
				<g>
					<path style="fill:#263238;" d="M281.265,211.58c-0.125,0.689,0.146,1.316,0.605,1.399c0.46,0.083,0.934-0.408,1.059-1.096
						c0.125-0.689-0.146-1.316-0.605-1.399C281.864,210.4,281.39,210.891,281.265,211.58z"/>
					<path style="fill:#263238;" d="M282.509,210.552l-1.392-0.86C281.117,209.691,281.634,211.088,282.509,210.552z"/>
				</g>
				<g>
					<path style="fill:#263238;" d="M294.259,209.69c-0.125,0-0.246-0.064-0.314-0.18c-0.924-1.591-3.125-1.668-3.147-1.669
						c-0.2-0.005-0.358-0.172-0.353-0.372c0.005-0.197,0.167-0.353,0.362-0.353c0.003,0,0.006,0,0.01,0
						c0.107,0.003,2.629,0.093,3.755,2.029c0.101,0.173,0.042,0.395-0.131,0.496C294.384,209.675,294.321,209.69,294.259,209.69z"/>
				</g>
				<g>
					<path style="fill:#263238;" d="M281.278,206.684c-0.137,0-0.268-0.078-0.329-0.211c-0.083-0.182-0.004-0.397,0.178-0.48
						c2.207-1.014,3.73-0.186,3.793-0.15c0.174,0.098,0.237,0.318,0.139,0.493c-0.098,0.173-0.318,0.235-0.491,0.14
						c-0.056-0.03-1.286-0.674-3.138,0.175C281.38,206.673,281.329,206.684,281.278,206.684z"/>
				</g>
				<path style="fill:#263238;" d="M314.883,210.474c-1.537-1.348-4.444-0.581-6.541,0.254c0.002-0.087,0.011-0.17,0.011-0.258
					c0-5.61-3.83-8.03-3.83-8.03c0.02-3.36-2.6-4.84-5.46-5.73c-2.87-0.89-5.35,0.79-8.71-0.79c-3.36-1.59-5.64,0.29-6.5,1.88
					c-0.87,1.58-0.49,3.87-3.29,3.95c-2.79,0.08-2.12,2.7-1.58,4.1c0.53,1.41,0.39,1.01-0.5,2.55c-0.61,1.06,0.3,1.73,0.95,2.05
					c-0.11,0.74-0.13,1.2-0.13,1.2c0.08-0.4,0.17-0.78,0.27-1.14c3.96-15.23,18.84-6.22,18.84-6.22c-1.44,5.25,1.4,12.79,1.4,12.79
					c1.25,3.35-0.59,6.73-1.75,8.4c-0.47,0.68-0.83,1.07-0.83,1.07c0.5-0.3,0.99-0.66,1.45-1.07c6-0.21,5.72-3.47,5.71-4.55
					c0-0.289,0.272-0.761,0.669-1.394c1.018,1.941,3.105,4.503,6.853,3.677C317.751,221.928,317.455,212.73,314.883,210.474z"/>
				
					<path style="fill:none;stroke:#263238;stroke-width:0.7247;stroke-linecap:round;stroke-linejoin:round;stroke-miterlimit:10;" d="
					M289.13,220.028c0,0-1.888,2.899-5.28,1.348"/>
				<path style="fill:none;stroke:#D58745;stroke-width:0.5;stroke-linecap:round;stroke-linejoin:round;stroke-miterlimit:10;" d="
					M289.509,214.171c0,0-0.391,2.787,2.277,2.328"/>
				<path style="fill:none;stroke:#D58745;stroke-width:0.5;stroke-linecap:round;stroke-linejoin:round;stroke-miterlimit:10;" d="
					M282.96,212.988c0,0-0.615,2.327-2.988,1.183"/>
				<path style="fill:none;stroke:#D58745;stroke-width:0.5;stroke-linecap:round;stroke-linejoin:round;stroke-miterlimit:10;" d="
					M286.993,217.564c0,0,3.367,1.206,4.057,4.268"/>
				<path style="opacity:0.4;fill:#FFFFFF;" d="M314.883,210.474c-1.537-1.348-4.444-0.581-6.541,0.254
					c0.002-0.087,0.011-0.17,0.011-0.258c0-5.61-3.83-8.03-3.83-8.03c0.02-3.36-2.6-4.84-5.46-5.73c-2.87-0.89-5.35,0.79-8.71-0.79
					c-3.36-1.59-5.64,0.29-6.5,1.88c-0.87,1.58-0.49,3.87-3.29,3.95c-2.79,0.08-2.12,2.7-1.58,4.1c0.53,1.41,0.39,1.01-0.5,2.55
					c-0.61,1.06,0.3,1.73,0.95,2.05c-0.11,0.74-0.13,1.2-0.13,1.2c0.08-0.4,0.17-0.78,0.27-1.14c3.96-15.23,18.84-6.22,18.84-6.22
					c-1.44,5.25,1.4,12.79,1.4,12.79c1.25,3.35-0.59,6.73-1.75,8.4c-0.47,0.68-0.83,1.07-0.83,1.07c0.5-0.3,0.99-0.66,1.45-1.07
					c6-0.21,5.72-3.47,5.71-4.55c0-0.289,0.272-0.761,0.669-1.394c1.018,1.941,3.105,4.503,6.853,3.677
					C317.751,221.928,317.455,212.73,314.883,210.474z"/>
				<path style="fill:#EBB376;" d="M298.162,218.639c0.27-1.347,2.031-3.421,4.509-2.748c2.564,0.696,2.963,6.249-3.73,6.514
					C297.98,222.442,297.598,221.449,298.162,218.639z"/>
				<g style="opacity:0.2;">
					<path style="fill:#FFFFFF;" d="M294.259,209.69c-0.125,0-0.246-0.064-0.314-0.18c-0.924-1.591-3.125-1.668-3.147-1.669
						c-0.2-0.005-0.358-0.172-0.353-0.372c0.005-0.197,0.167-0.353,0.362-0.353c0.003,0,0.006,0,0.01,0
						c0.107,0.003,2.629,0.093,3.755,2.029c0.101,0.173,0.042,0.395-0.131,0.496C294.384,209.675,294.321,209.69,294.259,209.69z"/>
				</g>
				<g style="opacity:0.2;">
					<path style="fill:#FFFFFF;" d="M281.278,206.684c-0.137,0-0.268-0.078-0.329-0.211c-0.083-0.182-0.004-0.397,0.178-0.48
						c2.207-1.014,3.73-0.186,3.793-0.15c0.174,0.098,0.237,0.318,0.139,0.493c-0.098,0.173-0.318,0.235-0.491,0.14
						c-0.056-0.03-1.286-0.674-3.138,0.175C281.38,206.673,281.329,206.684,281.278,206.684z"/>
				</g>
			</g>
			<path style="fill:#407BFF;" d="M202.451,341.473c0,0,0.188-30.264,7.71-37.978s35.438-12.548,35.438-12.548
				s26.048-2.711,35.461,2.051c9.413,4.762,9.584,29.449,9.584,29.449s-25.292-2.794-28.655,8.512
				c-3.363,11.306-4.615,22.185-4.615,22.185L202.451,341.473z"/>
			<path style="opacity:0.2;enable-background:new    ;" d="M239.419,386.066c-0.049-0.745-11.736,0.258-11.736,0.258
				s-6.998,5.988-13.949,7.525c-6.951,1.538-2.923,4.681,4.897,4.402c7.82-0.279,13.788-0.493,19.345-0.692
				C243.532,397.359,239.927,393.783,239.419,386.066z"/>
			<path style="fill:#2E353A;" d="M259.418,386.066c-0.049-0.745-11.736,0.258-11.736,0.258s-6.998,5.988-13.949,7.525
				c-6.951,1.538-2.923,4.681,4.897,4.402c7.82-0.279,13.788-0.493,19.345-0.692C263.532,397.359,259.927,393.783,259.418,386.066z"
				/>
			<g>
				<path style="fill:#EBB376;" d="M288.385,280.945l-8.325,4.33c0,0-2.455-0.572-4.7,0.121s-6.557,4.525-6.339,6.211
					c0.218,1.686,6.755,0.547,7.914,0.841c1.159,0.294,3.543-1.193,4.184-1.501c0.641-0.309,0.802-2.287,0.802-2.287l6.465-2.216
					V280.945z"/>
				<path style="fill:#407BFF;" d="M313.209,233.692c5.964,1.628,9.421,32.945,3.425,42.176
					c-5.996,9.231-31.414,12.791-31.414,12.791l-2.496-6.341c0,0,19.58-8.121,21.67-12.077c2.09-3.956,3.079-11.865,1.299-21.492
					C303.912,239.124,313.209,233.692,313.209,233.692z"/>
				<path style="opacity:0.6;fill:#FFFFFF;" d="M313.209,233.692c5.964,1.628,9.421,32.945,3.425,42.176
					c-5.996,9.231-31.414,12.791-31.414,12.791l-2.496-6.341c0,0,19.58-8.121,21.67-12.077c2.09-3.956,3.079-11.865,1.299-21.492
					C303.912,239.124,313.209,233.692,313.209,233.692z"/>
			</g>
			<g>
				<path style="fill:#EBB376;" d="M262.176,279.066l1.78,6.33c0,0,1.569,1.475,2.081,3.264c0.424,1.482-0.209,2.993-1.015,3.247
					c-2.055,0.648-6.302,1.586-6.605,0.499c-0.304-1.088-0.889-5.741,0.891-5.535l-1.385-5.134L262.176,279.066z"/>
				<path style="fill:#407BFF;" d="M272.989,233.824c-6.857,1.824-20.866,24.374-18.708,36.835
					c2.158,12.462,4.334,14.736,4.334,14.736l5.637-2.967c0,0-3.072-12.722-1.187-17.239
					C272.327,243,272.989,233.824,272.989,233.824z"/>
				<path style="opacity:0.6;fill:#FFFFFF;" d="M272.989,233.824c-6.857,1.824-20.866,24.374-18.708,36.835
					c2.158,12.462,4.334,14.736,4.334,14.736l5.637-2.967c0,0-3.072-12.722-1.187-17.239
					C272.327,243,272.989,233.824,272.989,233.824z"/>
			</g>
		</g>
		<g>
			<g>
				<path style="fill:#263238;" d="M320.055,244.832c-0.829,0-1.5-0.672-1.5-1.5V231.84c0-4.576,3.581-8.334,8.152-8.555
					l9.681-0.467c0.833-0.051,1.531,0.599,1.57,1.426c0.04,0.827-0.598,1.53-1.426,1.57l-9.681,0.467
					c-2.97,0.144-5.297,2.585-5.297,5.559v11.492C321.555,244.16,320.883,244.832,320.055,244.832z"/>
			</g>
			<g>
				<path style="fill:#2E353A;" d="M317.634,237.859v61.878h-46.941c-4.151,0-7.517,3.365-7.517,7.517v33.423h50.441
					c5.023,0,9.094-4.072,9.094-9.094v-24.724v-7.121v-61.878c0-1.402-1.137-2.539-2.539-2.539l0,0
					C318.77,235.32,317.634,236.457,317.634,237.859z"/>
				<path style="opacity:0.4;fill:#FFFFFF;" d="M317.634,237.859v61.878h-46.941c-4.151,0-7.517,3.365-7.517,7.517v33.423h50.441
					c5.023,0,9.094-4.072,9.094-9.094v-24.724v-7.121v-61.878c0-1.402-1.137-2.539-2.539-2.539l0,0
					C318.77,235.32,317.634,236.457,317.634,237.859z"/>
				<path style="fill:#2E353A;" d="M311.016,322.082h-38.886c-4.556,0-8.262,3.706-8.262,8.262v38.62v25.954
					c0,2.039-1.659,3.697-3.698,3.697h-19.133c-1.105,0-2,0.896-2,2s0.895,2,2,2h19.133c4.245,0,7.698-3.453,7.698-7.697v-23.954
					h43.148c1.104,0,2-0.896,2-2v-44.882C313.016,322.978,312.12,322.082,311.016,322.082z M309.016,366.964h-41.148v-36.62
					c0-2.35,1.912-4.262,4.262-4.262h36.886V366.964z"/>
				<path style="opacity:0.6;fill:#FFFFFF;" d="M311.016,322.082h-38.886c-4.556,0-8.262,3.706-8.262,8.262v38.62v25.954
					c0,2.039-1.659,3.697-3.698,3.697h-19.133c-1.105,0-2,0.896-2,2s0.895,2,2,2h19.133c4.245,0,7.698-3.453,7.698-7.697v-23.954
					h43.148c1.104,0,2-0.896,2-2v-44.882C313.016,322.978,312.12,322.082,311.016,322.082z M309.016,366.964h-41.148v-36.62
					c0-2.35,1.912-4.262,4.262-4.262h36.886V366.964z"/>
				<path style="fill:#2E353A;" d="M258.553,401.604h-31.652c-1.372,0-2.484-1.112-2.484-2.484v-1.395
					c0-1.372,1.112-2.484,2.484-2.484h31.652c1.372,0,2.484,1.112,2.484,2.484v1.395
					C261.037,400.492,259.925,401.604,258.553,401.604z"/>
				<path style="opacity:0.4;fill:#FFFFFF;" d="M258.553,401.604h-31.652c-1.372,0-2.484-1.112-2.484-2.484v-1.395
					c0-1.372,1.112-2.484,2.484-2.484h31.652c1.372,0,2.484,1.112,2.484,2.484v1.395
					C261.037,400.492,259.925,401.604,258.553,401.604z"/>
			</g>
			<g>
				<g>
					<g>
						<path style="fill:#2E353A;" d="M310.956,416.47c-21.376,0-38.768-21.311-38.768-47.506c0-26.194,17.391-47.506,38.768-47.506
							c21.377,0,38.768,21.311,38.768,47.506C349.724,395.158,332.332,416.47,310.956,416.47z M310.956,326.458
							c-18.62,0-33.768,19.068-33.768,42.506s15.148,42.506,33.768,42.506c18.62,0,33.768-19.068,33.768-42.506
							S329.575,326.458,310.956,326.458z"/>
					</g>
				</g>
				<g>
					<path style="fill:#407BFF;" d="M310.956,411.97c-18.895,0-34.268-19.292-34.268-43.006c0-23.714,15.372-43.006,34.268-43.006
						c18.896,0,34.268,19.292,34.268,43.006C345.224,392.678,329.851,411.97,310.956,411.97z M310.956,331.958
						c-15.587,0-28.268,16.601-28.268,37.006c0,20.405,12.681,37.006,28.268,37.006c15.587,0,28.268-16.601,28.268-37.006
						C339.224,348.559,326.543,331.958,310.956,331.958z"/>
				</g>
				<g>
					<ellipse style="fill:#407BFF;" cx="310.956" cy="368.964" rx="9.099" ry="11.769"/>
				</g>
				<g>
					<g>
						<rect x="309.956" y="328.958" style="fill:#407BFF;" width="2" height="80.012"/>
					</g>
					<g>
						<rect x="279.688" y="367.964" style="fill:#407BFF;" width="62.536" height="2"/>
					</g>
					<g>
						<g>
							
								<rect x="309.955" y="333.06" transform="matrix(0.7879 -0.6158 0.6158 0.7879 -161.2567 269.7505)" style="fill:#407BFF;" width="2.001" height="71.807"/>
						</g>
						<g>
							
								<rect x="275.052" y="367.963" transform="matrix(0.616 -0.7878 0.7878 0.616 -171.2426 386.6463)" style="fill:#407BFF;" width="71.807" height="2.001"/>
						</g>
					</g>
					<g>
						<g>
							
								<rect x="272.148" y="367.964" transform="matrix(0.3135 -0.9496 0.9496 0.3135 -136.8864 548.5892)" style="fill:#407BFF;" width="77.616" height="2"/>
						</g>
						<g>
							
								<rect x="309.955" y="336.221" transform="matrix(0.4758 -0.8796 0.8796 0.4758 -161.5172 466.9292)" style="fill:#407BFF;" width="2" height="65.486"/>
						</g>
						<g>
							<g>
								
									<rect x="309.956" y="330.073" transform="matrix(0.9532 -0.3023 0.3023 0.9532 -96.9804 111.251)" style="fill:#407BFF;" width="2" height="77.781"/>
							</g>
							<g>
								
									<rect x="278.311" y="367.963" transform="matrix(0.8875 -0.4608 0.4608 0.8875 -135.0449 184.8144)" style="fill:#407BFF;" width="65.29" height="2"/>
							</g>
						</g>
					</g>
				</g>
			</g>
		</g>
	</g>
</g>
<g id="Character_1">
	<g>
		<path style="fill:#B97964;" d="M184.736,221.407l8.967-4.484c0,0,2.141-2.901,2.719-3.033c0.578-0.132,11.391,1.319,11.391,1.319
			s-1.187,3.429-2.242,4.484c-1.055,1.055-8.044-0.264-8.044-0.264l-8.835,4.352L184.736,221.407z"/>
		<path style="fill:#263238;" d="M177.057,181.2c-2.408,2.334-4.671,4.124-1.164,7.352c3.507,3.228,2.837,8.557-1.637,10.933
			c-4.475,2.377-26.865,10.496-35.154,1.146c-8.289-9.35-2.119-15.786,1.951-17.535c4.07-1.749,0.148-6.351-0.233-9.685
			c-0.382-3.334,14.921-16.975,22.065-17.868c7.144-0.893,11.951,5.279,11.867,11.515
			C174.667,173.294,180.975,177.402,177.057,181.2z"/>
		<g>
			<path style="fill:#407BFF;" d="M168.385,198.165c-0.499,0,2.743,21.444,3.613,24.651c0.87,3.206,18.804-5.416,18.804-5.416
				l2.901,4.433c0,0-15.74,13.23-22.507,11.742c-6.768-1.487-11.869-24.914-11.869-24.914L168.385,198.165z"/>
			<path style="opacity:0.7;fill:#FFFFFF;" d="M193.7,221.83c0,0-15.74,13.23-22.5,11.74c-2.72-0.6-5.17-4.74-7.13-9.49
				c-2.51-6.06-4.21-13.1-4.64-14.95c-0.06-0.31-0.1-0.47-0.1-0.47l0.98-1.14l3.65-4.24l4.4-5.09c-0.34,0.83,2.79,21.49,3.64,24.63
				c0.87,3.2,18.8-5.42,18.8-5.42L193.7,221.83z"/>
			<path style="opacity:0.2;enable-background:new    ;" d="M164.07,224.08c-2.51-6.06-4.21-13.1-4.64-14.95
				c0.28-0.56,0.57-1.1,0.88-1.61c1.04-1.74,2.26-3.22,3.65-4.24c0.05-0.03,0.09-0.07,0.14-0.1
				C164.1,203.18,167.95,214.36,164.07,224.08z"/>
		</g>
		<g>
			<polygon style="fill:#407BFF;" points="122.758,270.918 150.269,274.81 155.178,203.843 127.628,207.117 			"/>
			<polygon style="opacity:0.4;fill:#FFFFFF;" points="122.758,270.918 150.269,274.81 155.178,203.843 127.628,207.117 			"/>
		</g>
		<polygon style="fill:#B97964;" points="136.353,405.577 129.74,405.577 131.766,396.435 133.64,388.046 141.923,386.778 
			138.978,396.731 		"/>
		<polygon style="opacity:0.2;enable-background:new    ;" points="138.909,396.934 131.705,396.615 133.609,388.136 
			141.907,386.823 		"/>
		<polygon style="fill:#B97964;" points="122.664,405.577 116.051,405.577 118.078,396.435 119.951,388.046 128.234,386.778 
			125.289,396.731 		"/>
		<polygon style="opacity:0.2;enable-background:new    ;" points="125.22,396.934 118.016,396.615 119.921,388.136 
			128.219,386.823 		"/>
		<g>
			<path style="fill:#263238;" d="M110.696,230.864c0,0-0.334,0.709-0.866,2.027c-2.487,6.153-9.308,25.574-6.759,48.097
				c1.507,13.319,16.228,37.291,18.418,50.353c2.549,15.206-4.125,42.007-2.413,61.67l10.517,0.921l3.171-1.996l9.012-1.343
				c0,0,23.466-53.363,23.039-71.813c-0.336-14.489-23.039-66.435-23.039-66.435l2.163-19.208"/>
			<path style="opacity:0.2;enable-background:new    ;" d="M134.416,391.693l-1.652,0.244l-2.699,1.701
				c1.721-5.994,16.544-57.883,16.808-69.303c0.293-12.134-16.974-55.194-16.974-55.194l4.429-7.998l-0.665,12.173
				c0,0,16.338,33.488,17.629,51.019C152.534,341.143,135.785,387.909,134.416,391.693z"/>
		</g>
		<path style="fill:#263238;" d="M127.879,405.29c0.017-0.729,8.975-0.158,8.975-0.158s5.511,5.605,10.865,6.865
			c5.354,1.26,2.362,4.472-3.621,4.472s-10.55,0-14.801,0C125.045,416.47,127.702,412.848,127.879,405.29z"/>
		<g>
			<path style="fill:#407BFF;" d="M137.855,406.29c-0.029-0.013-0.054-0.033-0.075-0.055l0-0.001l0,0
				c-0.017-0.019-0.031-0.041-0.041-0.065l0,0l0-0.001c-0.01-0.023-0.016-0.048-0.017-0.073l0,0l-0.001-0.001c0,0,0,0,0-0.001l0,0
				c-0.002-0.033,0.003-0.066,0.014-0.095c0.038-0.107,0.79-2.181,1.999-2.684c0.386-0.16,0.776-0.148,1.159,0.032
				c0.408,0.194,0.606,0.447,0.589,0.753c-0.027,0.471-0.666,0.943-1.394,1.332c0.756-0.073,1.533-0.052,2.008,0.22
				c0.252,0.145,0.413,0.349,0.478,0.606c0.135,0.531-0.043,0.813-0.217,0.955c-0.186,0.153-0.463,0.215-0.79,0.215
				C140.316,407.426,138.326,406.515,137.855,406.29z M138.674,406.14c1.321,0.559,2.961,1.052,3.383,0.706
				c0.037-0.03,0.149-0.122,0.059-0.474c-0.034-0.131-0.117-0.233-0.256-0.313c-0.248-0.142-0.626-0.196-1.056-0.196
				C140.115,405.863,139.293,406.003,138.674,406.14z M139.915,403.749c-0.702,0.291-1.256,1.31-1.536,1.925
				c1.326-0.504,2.607-1.2,2.63-1.603c0.007-0.125-0.197-0.242-0.32-0.299c-0.139-0.066-0.275-0.099-0.412-0.099
				C140.157,403.673,140.037,403.699,139.915,403.749z"/>
		</g>
		<polygon style="fill:#407BFF;" points="129.592,390.428 144.44,388.401 143.197,393.933 130.943,395.473 		"/>
		<path style="fill:#263238;" d="M114.191,405.29c0.017-0.729,8.975-0.158,8.975-0.158s5.511,5.605,10.864,6.865
			c5.354,1.26,2.362,4.472-3.621,4.472c-5.983,0-10.55,0-14.801,0C111.356,416.47,114.013,412.848,114.191,405.29z"/>
		<g>
			<path style="fill:#407BFF;" d="M124.166,406.29c-0.029-0.013-0.054-0.033-0.075-0.055l0-0.001l0,0
				c-0.017-0.019-0.031-0.041-0.041-0.065l0,0l0-0.001c-0.01-0.023-0.016-0.048-0.017-0.073l0,0l-0.001-0.001c0,0,0,0,0-0.001l0,0
				c-0.002-0.033,0.003-0.066,0.014-0.095c0.038-0.107,0.79-2.181,1.999-2.684c0.386-0.16,0.776-0.148,1.159,0.032
				c0.408,0.194,0.606,0.447,0.589,0.753c-0.027,0.471-0.666,0.943-1.394,1.332c0.756-0.073,1.533-0.052,2.008,0.22
				c0.252,0.145,0.413,0.349,0.478,0.606c0.135,0.531-0.043,0.813-0.217,0.955c-0.186,0.153-0.463,0.215-0.79,0.215
				C126.627,407.426,124.637,406.515,124.166,406.29z M124.986,406.14c1.321,0.559,2.961,1.052,3.383,0.706
				c0.037-0.03,0.149-0.122,0.059-0.474c-0.034-0.131-0.117-0.233-0.256-0.313c-0.248-0.142-0.626-0.196-1.056-0.196
				C126.426,405.863,125.604,406.003,124.986,406.14z M126.227,403.749c-0.702,0.291-1.256,1.31-1.536,1.925
				c1.326-0.504,2.607-1.2,2.63-1.603c0.007-0.125-0.197-0.242-0.32-0.299c-0.139-0.066-0.275-0.099-0.412-0.099
				C126.469,403.673,126.348,403.699,126.227,403.749z"/>
		</g>
		<polygon style="fill:#407BFF;" points="116.908,390.428 132.764,388.401 131.436,393.933 118.351,395.473 		"/>
		<g>
			<polygon points="112.62,226.544 111.067,231.006 142.354,239.275 144.19,233.998 			"/>
			
				<rect x="120.617" y="227.781" transform="matrix(0.96 0.2801 -0.2801 0.96 69.798 -24.7267)" style="fill:#263238;" width="1.602" height="8.163"/>
			
				<rect x="128.964" y="231.632" transform="matrix(0.97 0.2431 -0.2431 0.97 60.9486 -25.1858)" style="fill:#FFFFFF;" width="7.084" height="5.372"/>
			
				<rect x="139.946" y="232.216" transform="matrix(0.9599 0.2802 -0.2802 0.9599 71.855 -29.9733)" style="fill:#263238;" width="1.602" height="8.163"/>
		</g>
		<path style="fill:#407BFF;" d="M167.885,198.165c-1.358,1.765-2.616,3.433-3.784,5.014c-4.558,6.102-7.805,10.434-10.29,13.922
			c-3.393,4.796-5.351,8.005-7.233,12.04c-0.81,1.714-1.61,3.586-2.5,5.792l-31.461-8.394c5.926-21.981,10.999-33.516,13.533-39.265
			c0.028-0.066,0.054-0.121,0.082-0.187c1.589-3.569,5.55-5.439,9.327-4.426c2.26,0.611,4.904,1.377,7.354,2.209
			c4.561,1.69,8.994,3.699,13.282,6.016C160.258,193.027,164.158,195.454,167.885,198.165z"/>
		<path style="fill:#B97964;" d="M135.559,182.662c-4.14-1.09,1.948,13.471,11.36,16.308c9.412,2.837,15.074-0.645,15.079-3.352
			C162.005,192.91,148.052,185.952,135.559,182.662z"/>
		<g>
			<g>
				<path style="fill:#407BFF;" d="M138.319,182.388c0,0,3.165,14.263,0,24.728c-3.165,10.466-29.011,73.829-29.011,73.829H95.593
					c0,0,4.244-31.27,17.023-58.13c0,0,11.46-36.09,11.724-37.673C124.604,183.56,130.67,180.952,138.319,182.388z"/>
				<path style="fill:#407BFF;" d="M156.332,190.004c0,0,0.411,14.602-4.99,27.561l-1.074,55.192c0,0,4.444-28.356,6.4-49.941
					l11.715-24.651L156.332,190.004z"/>
				<path style="opacity:0.8;fill:#FFFFFF;" d="M138.32,207.12c-3.17,10.46-29.01,73.83-29.01,73.83H95.59
					c0,0,3.89-28.59,15.4-54.57c0.53-1.19,1.07-2.38,1.63-3.56c0,0,1.09-3.43,2.6-8.23c3.4-10.75,8.94-28.35,9.12-29.45
					c0.26-1.58,6.33-4.19,13.98-2.75C138.32,182.39,141.48,196.65,138.32,207.12z"/>
				<path style="opacity:0.8;fill:#FFFFFF;" d="M156.332,190.004c0,0,0.411,14.602-4.99,27.561l-1.074,55.192
					c0,0,4.444-28.356,6.4-49.941l11.715-24.651L156.332,190.004z"/>
			</g>
			<g>
				<path style="fill:#407BFF;" d="M156.67,188.769c0,0,4.157,3.363,6.897,12.264l-5.587,3.991l1.347,3.637l-7.984,12.746
					c0,0-0.641-5.143,0.635-9.89C153.253,206.769,157.053,192.801,156.67,188.769z"/>
				<path style="fill:#407BFF;" d="M139.725,182.388c0,0,5.347,17.356-5.101,35.012c0,0-0.316-13.301-2.118-18.147l4.294-1.716
					l-8.47-5.504C128.33,192.033,135.198,180.754,139.725,182.388z"/>
				<path style="opacity:0.7;fill:#FFFFFF;" d="M156.67,188.769c0,0,4.157,3.363,6.897,12.264l-5.587,3.991l1.347,3.637
					l-7.984,12.746c0,0-0.641-5.143,0.635-9.89C153.253,206.769,157.053,192.801,156.67,188.769z"/>
				<path style="opacity:0.7;fill:#FFFFFF;" d="M139.725,182.388c0,0,5.347,17.356-5.101,35.012c0,0-0.316-13.301-2.118-18.147
					l4.294-1.716l-8.47-5.504C128.33,192.033,135.198,180.754,139.725,182.388z"/>
			</g>
			<path style="opacity:0.2;enable-background:new    ;" d="M124.08,231.38c-3.22,0.3-8.84-2.52-13.09-5
				c0.53-1.19,1.07-2.38,1.63-3.56c0,0,1.09-3.43,2.6-8.23C120.35,220.88,127.96,231.02,124.08,231.38z"/>
		</g>
		<g>
			<g>
				<path style="fill:#407BFF;" d="M126.352,251.488c0,0,3.11,0.429,9.096-5.301c5.986-5.73,14.021-12.443,15.942-11.523
					c1.921,0.921,17.743,8.559,17.743,8.559l-23.937,17.05L126.352,251.488z"/>
				<path style="opacity:0.7;fill:#FFFFFF;" d="M126.352,251.488c0,0,3.11,0.429,9.096-5.301
					c5.986-5.73,14.021-12.443,15.942-11.523c1.921,0.921,17.743,8.559,17.743,8.559l-23.937,17.05L126.352,251.488z"/>
				<path style="fill:#407BFF;" d="M126.795,254.952l24.519-19.192c0.324-0.254,0.763-0.308,1.139-0.141l18.456,8.173
					c0.344,0.152,0.396,0.618,0.095,0.843L146.789,262.7c-0.304,0.227-0.703,0.284-1.059,0.15l-18.805-7.052
					C126.566,255.664,126.493,255.188,126.795,254.952z"/>
				<g>
					<path style="fill:none;" d="M162.632,239.02c-0.196-0.131-0.563,0.014-0.843,0.16c0.247,0.117,0.493,0.235,0.738,0.351
						C162.684,239.37,162.829,239.152,162.632,239.02z"/>
					<path style="fill:#263238;" d="M163.054,239.783c0.212-0.334,0.495-0.967-0.157-1.293c-0.592-0.296-1.38,0.053-1.862,0.333
						c-0.947-0.448-1.836-0.863-2.463-1.144c-0.136-0.061-0.29-0.032-0.4,0.069l-1.539,1.415c-0.294,0.27-0.211,0.754,0.156,0.911
						l6.29,2.682c0.455,0.194,0.98,0.117,1.359-0.199l1.254-1.045c0.164-0.137,0.138-0.394-0.054-0.487
						C165.117,240.773,164.144,240.304,163.054,239.783z M162.632,239.02c0.197,0.131,0.052,0.349-0.105,0.511
						c-0.244-0.116-0.49-0.234-0.738-0.351C162.069,239.034,162.436,238.89,162.632,239.02z"/>
				</g>
			</g>
			<path style="fill:#B97964;" d="M131.989,234.934l4.088,5.462c0,0,3.967,0.791,5.016,1.846c1.049,1.055,4.478,5.67,4.874,6.725
				c0.396,1.055-5.496,3.956-6.242,3.561c-0.747-0.396-4.951-6.33-5.486-7.385c-0.535-1.055,0-2.143,0-2.143l-4.339-4.978
				L131.989,234.934z"/>
			<path style="fill:#407BFF;" d="M124.341,185.143c3.692,2.037,3.989,9.938,3.989,9.938s-8.473,16.426-9,18.977
				c-0.527,2.55,15.669,23.448,15.669,23.448l-3.801,3.55c0,0-19.517-20.928-21.626-25.97
				C107.462,210.043,124.341,185.143,124.341,185.143z"/>
			<path style="opacity:0.7;fill:#FFFFFF;" d="M124.341,185.143c3.692,2.037,3.989,9.938,3.989,9.938s-8.473,16.426-9,18.977
				c-0.527,2.55,15.669,23.448,15.669,23.448l-3.801,3.55c0,0-19.517-20.928-21.626-25.97
				C107.462,210.043,124.341,185.143,124.341,185.143z"/>
		</g>
		<g>
			<g>
				<path style="fill:#263238;" d="M170.458,226.699c0,1.447-1.173,2.619-2.619,2.619c-1.447,0-2.619-1.173-2.619-2.619
					c0-1.447,1.173-2.619,2.619-2.619C169.286,224.08,170.458,225.253,170.458,226.699z"/>
			</g>
			<g style="opacity:0.6;">
				<path style="fill:#FFFFFF;" d="M170.458,226.699c0,1.447-1.173,2.619-2.619,2.619c-1.447,0-2.619-1.173-2.619-2.619
					c0-1.447,1.173-2.619,2.619-2.619C169.286,224.08,170.458,225.253,170.458,226.699z"/>
			</g>
			<path style="fill:#263238;" d="M157.874,205.096c0.024-1.499,0.278-3.111,0.546-4.817c0.937-5.943,1.998-12.679-6.88-16.518
				c-2.685-1.161-5.065-1.137-7.076,0.072c-4.546,2.736-5.714,10.654-5.946,12.723c-1.801-0.114-3.26,0.4-4.334,1.546
				c-3.249,3.468-1.764,11.456-1.699,11.794c0.052,0.271,0.315,0.448,0.585,0.397c0.271-0.052,0.449-0.314,0.397-0.586
				c-0.015-0.078-1.459-7.822,1.446-10.922c0.957-1.021,2.261-1.41,3.991-1.197c1.71,0.214,2.925,0.942,3.716,2.225
				c2.506,4.07-0.338,12.177-0.367,12.259c-0.093,0.26,0.042,0.546,0.303,0.639c0.056,0.02,0.112,0.029,0.168,0.029
				c0.206,0,0.398-0.127,0.471-0.332c0.125-0.351,3.035-8.639,0.278-13.118c-0.868-1.41-2.202-2.282-3.96-2.611
				c0.226-1.934,1.363-9.522,5.468-11.991c1.717-1.033,3.791-1.037,6.162-0.011c8.166,3.532,7.212,9.588,6.289,15.445
				c-0.274,1.741-0.534,3.386-0.559,4.957c-0.128,8.047,2.443,20.912,9.89,21.178l0.035-1
				C159.817,225.01,157.771,211.567,157.874,205.096z"/>
			<path style="opacity:0.2;fill:#FFFFFF;" d="M157.874,205.096c0.024-1.499,0.278-3.111,0.546-4.817
				c0.937-5.943,1.998-12.679-6.88-16.518c-2.685-1.161-5.065-1.137-7.076,0.072c-4.546,2.736-5.714,10.654-5.946,12.723
				c-1.801-0.114-3.26,0.4-4.334,1.546c-3.249,3.468-1.764,11.456-1.699,11.794c0.052,0.271,0.315,0.448,0.585,0.397
				c0.271-0.052,0.449-0.314,0.397-0.586c-0.015-0.078-1.459-7.822,1.446-10.922c0.957-1.021,2.261-1.41,3.991-1.197
				c1.71,0.214,2.925,0.942,3.716,2.225c2.506,4.07-0.338,12.177-0.367,12.259c-0.093,0.26,0.042,0.546,0.303,0.639
				c0.056,0.02,0.112,0.029,0.168,0.029c0.206,0,0.398-0.127,0.471-0.332c0.125-0.351,3.035-8.639,0.278-13.118
				c-0.868-1.41-2.202-2.282-3.96-2.611c0.226-1.934,1.363-9.522,5.468-11.991c1.717-1.033,3.791-1.037,6.162-0.011
				c8.166,3.532,7.212,9.588,6.289,15.445c-0.274,1.741-0.534,3.386-0.559,4.957c-0.128,8.047,2.443,20.912,9.89,21.178l0.035-1
				C159.817,225.01,157.771,211.567,157.874,205.096z"/>
			<g>
				<path style="fill:#263238;" d="M143.267,211.465l-1.381-0.279c0,0-1.051,2.205-0.187,2.59
					C142.564,214.161,143.731,212.623,143.267,211.465z"/>
			</g>
			<g style="opacity:0.6;">
				<path style="fill:#FFFFFF;" d="M143.267,211.465l-1.381-0.279c0,0-1.051,2.205-0.187,2.59
					C142.564,214.161,143.731,212.623,143.267,211.465z"/>
			</g>
			<g>
				<path style="fill:#263238;" d="M132.755,208.999h1.409c0,0,0.593,2.369-0.33,2.575
					C132.911,211.78,132.072,210.042,132.755,208.999z"/>
			</g>
			<g style="opacity:0.6;">
				<path style="fill:#FFFFFF;" d="M132.755,208.999h1.409c0,0,0.593,2.369-0.33,2.575
					C132.911,211.78,132.072,210.042,132.755,208.999z"/>
			</g>
			<g>
				<circle style="fill:#263238;" cx="167.268" cy="225.546" r="1.465"/>
			</g>
			<g style="opacity:0.7;">
				<circle style="fill:#FFFFFF;" cx="167.268" cy="225.546" r="1.465"/>
			</g>
		</g>
		<g>
			<path style="fill:#B97964;" d="M147.578,197.043c-5.295-6.021-4.843-10.151-4.843-10.151c6.934-0.237,9.242-9.199,9.242-9.199
				l6.002,7.67c-1.235,1.021-2.192,1.946-2.945,2.777c-3.896,4.312-1.961,6.092-1.961,6.092
				C152.253,197.704,147.578,197.043,147.578,197.043z"/>
			<path style="opacity:0.2;enable-background:new    ;" d="M157.98,185.362c-1.235,1.021-2.192,1.946-2.945,2.777
				c-2.756-3.854-3.057-10.447-3.057-10.447L157.98,185.362z"/>
		</g>
		<g>
			<path style="fill:#B97964;" d="M164.517,157.061c8.098,1.972,9.648,6.943,8.209,15.432c-1.799,10.609-5.916,17.456-15.498,12.762
				C144.214,178.881,151.069,153.785,164.517,157.061z"/>
			<path style="fill:#A24E3F;" d="M167.602,170.766c0,0,0.607,2.389,1.538,3.932c0,0-0.961,0.933-2.358,0.396L167.602,170.766z"/>
			<g>
				<path style="fill:#263238;" d="M162.806,168.896c-0.146,0.669-0.627,1.132-1.073,1.035c-0.446-0.098-0.689-0.719-0.542-1.388
					c0.146-0.669,0.627-1.132,1.073-1.035C162.71,167.606,162.953,168.227,162.806,168.896z"/>
				<path style="fill:#263238;" d="M162.071,167.5l1.58-0.252C163.651,167.248,162.658,168.313,162.071,167.5z"/>
			</g>
			<g>
				<path style="fill:#263238;" d="M171.154,170.578c-0.146,0.669-0.627,1.132-1.073,1.035c-0.446-0.098-0.689-0.719-0.542-1.388
					c0.146-0.669,0.627-1.132,1.073-1.035C171.057,169.287,171.3,169.909,171.154,170.578z"/>
				<path style="fill:#263238;" d="M170.418,169.181l1.58-0.252C171.998,168.929,171.005,169.995,170.418,169.181z"/>
			</g>
			
				<path style="fill:none;stroke:#263238;stroke-width:0.7247;stroke-linecap:round;stroke-linejoin:round;stroke-miterlimit:10;" d="
				M164.087,163.285c0,0-2.203-0.85-3.81,0.369"/>
			
				<path style="fill:none;stroke:#263238;stroke-width:0.7247;stroke-linecap:round;stroke-linejoin:round;stroke-miterlimit:10;" d="
				M170.057,164.376c0,0,1.559-0.181,3.065,1.452"/>
			<path style="fill:#263238;" d="M152.343,168.554c0,0,5.407-5.731,6.084-11.007c0,0,17.644-2.647,14.469,13.834
				c0,0,5.09-14.081-8.752-17.794c-13.82-3.707-18.743,16.667-13.032,24.486C151.112,178.073,148.987,172.145,152.343,168.554z"/>
			<path style="fill:#B97964;" d="M153.249,170.585c0.263-1.317-0.545-3.851-3.034-4.177c-2.576-0.337-5.027,4.523,0.913,7.282
				C151.981,174.086,152.699,173.333,153.249,170.585z"/>
			<path style="fill:#263238;" d="M177.773,175.028c-2.106-1.99-1.781-5.4-0.137-8.845c1.645-3.445-2.615-5.978-2.615-5.978
				s-0.343-4.343-3.677-6.088c-0.609-0.319-3.384-0.002-3.384-0.002c-3.637-3.984-9.489-7.284-14.082-2.071
				c-2.708,3.074-5.398-0.077-9.689,6.33c-3.096,4.622-0.935,8.7-1.838,10.186c-4.158,6.842,1.249,8.694,2.546,11.07
				c0,0,2.86-1.364,2.619-2.178c-1.944-6.554,1.459-10.806,4.089-9.756c2.631,1.049,4.522,0.762,6.434-1.647
				c1.912-2.409,0.579-5.016,4.993-5.602c4.414-0.586,4.865-3.128,4.865-3.128s-0.056,3.349,3.632,5.277
				c3.688,1.928,2.238,4.258,1.723,7.548c-0.515,3.29,1.11,4.56,3.971,6.942c2.86,2.382-0.167,4.116-0.167,4.116
				C179.395,180.069,179.88,177.017,177.773,175.028z"/>
			<g>
				<path style="fill:#263238;" d="M166.172,178.762c-0.818,0.667-1.999,2.089-1.999,2.089c-0.148-0.084-0.296-0.168-0.44-0.259
					c-1.98-1.188-2.506-2.393-2.489-3.368c0.011-0.534,0.193-1.002,0.387-1.355c0.22-0.412,0.471-0.655,0.471-0.655
					c0.674,1.257,2.434,2.506,3.402,3.134C165.906,178.614,166.172,178.762,166.172,178.762z"/>
				<path style="fill:#FFFFFF;" d="M165.503,178.347l-0.605,0.601c-1.862-1.123-3.023-2.164-3.268-3.079
					c0.22-0.412,0.471-0.655,0.471-0.655C162.775,176.469,164.535,177.719,165.503,178.347z"/>
				<path style="fill:#DE5753;" d="M163.733,180.592c-1.98-1.188-2.506-2.393-2.489-3.368c0.659,0.431,1.406,1.023,1.937,1.754
					C163.59,179.535,163.72,180.096,163.733,180.592z"/>
			</g>
		</g>
	</g>
</g>
</svg>
